# https://github.com/mikedh/trimesh
mtllib material.mtl

o Port_USBC
usemtl M_Black
v -0.00460000 -0.08170000 -0.00150000
v -0.00460000 -0.08170000 0.00150000
v -0.00460000 -0.07990000 -0.00150000
v -0.00460000 -0.07990000 0.00150000
v 0.00460000 -0.08170000 -0.00150000
v 0.00460000 -0.08170000 0.00150000
v 0.00460000 -0.07990000 -0.00150000
v 0.00460000 -0.07990000 0.00150000
f 2 4 1
f 5 2 1
f 1 4 3
f 3 5 1
f 2 8 4
f 6 2 5
f 6 8 2
f 4 8 3
f 7 5 3
f 3 8 7
f 7 6 5
f 8 6 7

o BackPanel
usemtl M_BackPanel_Glass
v 0.03320000 0.01500000 -0.00422500
v 0.03295597 0.01747765 -0.00422500
v 0.03223327 0.01986008 -0.00422500
v 0.03105966 0.02205574 -0.00422500
v 0.02948026 0.02398026 -0.00422500
v 0.02755574 0.02555966 -0.00422500
v 0.02536008 0.02673327 -0.00422500
v 0.02297765 0.02745597 -0.00422500
v 0.02050000 0.02770000 -0.00422500
v -0.02050000 0.02770000 -0.00422500
v -0.02297765 0.02745597 -0.00422500
v -0.02536008 0.02673327 -0.00422500
v -0.02755574 0.02555966 -0.00422500
v -0.02948026 0.02398026 -0.00422500
v -0.03105966 0.02205574 -0.00422500
v -0.03223327 0.01986008 -0.00422500
v -0.03295597 0.01747765 -0.00422500
v -0.03320000 0.01500000 -0.00422500
v -0.03320000 -0.06000000 -0.00422500
v -0.03295597 -0.06247765 -0.00422500
v -0.03223327 -0.06486008 -0.00422500
v -0.03105966 -0.06705574 -0.00422500
v -0.02948026 -0.06898025 -0.00422500
v -0.02755574 -0.07055967 -0.00422500
v -0.02536008 -0.07173327 -0.00422500
v -0.02297765 -0.07245597 -0.00422500
v -0.02050000 -0.07270000 -0.00422500
v 0.02050000 -0.07270000 -0.00422500
v 0.02297765 -0.07245597 -0.00422500
v 0.02536008 -0.07173327 -0.00422500
v 0.02755574 -0.07055967 -0.00422500
v 0.02948026 -0.06898025 -0.00422500
v 0.03105966 -0.06705574 -0.00422500
v 0.03223327 -0.06486008 -0.00422500
v 0.03295597 -0.06247765 -0.00422500
v 0.03320000 -0.06000000 -0.00422500
v 0.03350000 0.01500000 -0.00452500
v 0.03325021 0.01753617 -0.00452500
v 0.03251043 0.01997489 -0.00452500
v 0.03130911 0.02222241 -0.00452500
v 0.02969239 0.02419239 -0.00452500
v 0.02772241 0.02580911 -0.00452500
v 0.02547489 0.02701043 -0.00452500
v 0.02303617 0.02775021 -0.00452500
v 0.02050000 0.02800000 -0.00452500
v -0.02050000 0.02800000 -0.00452500
v -0.02303617 0.02775021 -0.00452500
v -0.02547489 0.02701043 -0.00452500
v -0.02772241 0.02580911 -0.00452500
v -0.02969239 0.02419239 -0.00452500
v -0.03130911 0.02222241 -0.00452500
v -0.03251043 0.01997489 -0.00452500
v -0.03325021 0.01753617 -0.00452500
v -0.03350000 0.01500000 -0.00452500
v -0.03350000 -0.06000000 -0.00452500
v -0.03325021 -0.06253617 -0.00452500
v -0.03251043 -0.06497488 -0.00452500
v -0.03130911 -0.06722242 -0.00452500
v -0.02969239 -0.06919239 -0.00452500
v -0.02772241 -0.07080910 -0.00452500
v -0.02547489 -0.07201044 -0.00452500
v -0.02303617 -0.07275021 -0.00452500
v -0.02050000 -0.07300000 -0.00452500
v 0.02050000 -0.07300000 -0.00452500
v 0.02303617 -0.07275021 -0.00452500
v 0.02547489 -0.07201044 -0.00452500
v 0.02772241 -0.07080910 -0.00452500
v 0.02969239 -0.06919239 -0.00452500
v 0.03130911 -0.06722242 -0.00452500
v 0.03251043 -0.06497488 -0.00452500
v 0.03325021 -0.06253617 -0.00452500
v 0.03350000 -0.06000000 -0.00452500
v 0.03350000 0.01500000 -0.00462500
v 0.03325021 0.01753617 -0.00462500
v 0.03251043 0.01997489 -0.00462500
v 0.03130911 0.02222241 -0.00462500
v 0.02969239 0.02419239 -0.00462500
v 0.02772241 0.02580911 -0.00462500
v 0.02547489 0.02701043 -0.00462500
v 0.02303617 0.02775021 -0.00462500
v 0.02050000 0.02800000 -0.00462500
v -0.02050000 0.02800000 -0.00462500
v -0.02303617 0.02775021 -0.00462500
v -0.02547489 0.02701043 -0.00462500
v -0.02772241 0.02580911 -0.00462500
v -0.02969239 0.02419239 -0.00462500
v -0.03130911 0.02222241 -0.00462500
v -0.03251043 0.01997489 -0.00462500
v -0.03325021 0.01753617 -0.00462500
v -0.03350000 0.01500000 -0.00462500
v -0.03350000 -0.06000000 -0.00462500
v -0.03325021 -0.06253617 -0.00462500
v -0.03251043 -0.06497488 -0.00462500
v -0.03130911 -0.06722242 -0.00462500
v -0.02969239 -0.06919239 -0.00462500
v -0.02772241 -0.07080910 -0.00462500
v -0.02547489 -0.07201044 -0.00462500
v -0.02303617 -0.07275021 -0.00462500
v -0.02050000 -0.07300000 -0.00462500
v 0.02050000 -0.07300000 -0.00462500
v 0.02303617 -0.07275021 -0.00462500
v 0.02547489 -0.07201044 -0.00462500
v 0.02772241 -0.07080910 -0.00462500
v 0.02969239 -0.06919239 -0.00462500
v 0.03130911 -0.06722242 -0.00462500
v 0.03251043 -0.06497488 -0.00462500
v 0.03325021 -0.06253617 -0.00462500
v 0.03350000 -0.06000000 -0.00462500
v 0.03320000 0.01500000 -0.00492500
v 0.03295597 0.01747765 -0.00492500
v 0.03223327 0.01986008 -0.00492500
v 0.03105966 0.02205574 -0.00492500
v 0.02948026 0.02398026 -0.00492500
v 0.02755574 0.02555966 -0.00492500
v 0.02536008 0.02673327 -0.00492500
v 0.02297765 0.02745597 -0.00492500
v 0.02050000 0.02770000 -0.00492500
v -0.02050000 0.02770000 -0.00492500
v -0.02297765 0.02745597 -0.00492500
v -0.02536008 0.02673327 -0.00492500
v -0.02755574 0.02555966 -0.00492500
v -0.02948026 0.02398026 -0.00492500
v -0.03105966 0.02205574 -0.00492500
v -0.03223327 0.01986008 -0.00492500
v -0.03295597 0.01747765 -0.00492500
v -0.03320000 0.01500000 -0.00492500
v -0.03320000 -0.06000000 -0.00492500
v -0.03295597 -0.06247765 -0.00492500
v -0.03223327 -0.06486008 -0.00492500
v -0.03105966 -0.06705574 -0.00492500
v -0.02948026 -0.06898025 -0.00492500
v -0.02755574 -0.07055967 -0.00492500
v -0.02536008 -0.07173327 -0.00492500
v -0.02297765 -0.07245597 -0.00492500
v -0.02050000 -0.07270000 -0.00492500
v 0.02050000 -0.07270000 -0.00492500
v 0.02297765 -0.07245597 -0.00492500
v 0.02536008 -0.07173327 -0.00492500
v 0.02755574 -0.07055967 -0.00492500
v 0.02948026 -0.06898025 -0.00492500
v 0.03105966 -0.06705574 -0.00492500
v 0.03223327 -0.06486008 -0.00492500
v 0.03295597 -0.06247765 -0.00492500
v 0.03320000 -0.06000000 -0.00492500
v 0.00000000 -0.02250000 -0.00422500
v 0.00000000 -0.02250000 -0.00492500
f 9 45 46
f 9 46 10
f 10 46 47
f 10 47 11
f 11 47 48
f 11 48 12
f 12 48 49
f 12 49 13
f 13 49 50
f 13 50 14
f 14 50 51
f 14 51 15
f 15 51 52
f 15 52 16
f 16 52 53
f 16 53 17
f 17 53 54
f 17 54 18
f 18 54 55
f 18 55 19
f 19 55 56
f 19 56 20
f 20 56 57
f 20 57 21
f 21 57 58
f 21 58 22
f 22 58 59
f 22 59 23
f 23 59 60
f 23 60 24
f 24 60 61
f 24 61 25
f 25 61 62
f 25 62 26
f 26 62 63
f 26 63 27
f 27 63 64
f 27 64 28
f 28 64 65
f 28 65 29
f 29 65 66
f 29 66 30
f 30 66 67
f 30 67 31
f 31 67 68
f 31 68 32
f 32 68 69
f 32 69 33
f 33 69 70
f 33 70 34
f 34 70 71
f 34 71 35
f 35 71 72
f 35 72 36
f 36 72 73
f 36 73 37
f 37 73 74
f 37 74 38
f 38 74 75
f 38 75 39
f 39 75 76
f 39 76 40
f 40 76 77
f 40 77 41
f 41 77 78
f 41 78 42
f 42 78 79
f 42 79 43
f 43 79 80
f 43 80 44
f 44 80 45
f 44 45 9
f 45 81 82
f 45 82 46
f 46 82 83
f 46 83 47
f 47 83 84
f 47 84 48
f 48 84 85
f 48 85 49
f 49 85 86
f 49 86 50
f 50 86 87
f 50 87 51
f 51 87 88
f 51 88 52
f 52 88 89
f 52 89 53
f 53 89 90
f 53 90 54
f 54 90 91
f 54 91 55
f 55 91 92
f 55 92 56
f 56 92 93
f 56 93 57
f 57 93 94
f 57 94 58
f 58 94 95
f 58 95 59
f 59 95 96
f 59 96 60
f 60 96 97
f 60 97 61
f 61 97 98
f 61 98 62
f 62 98 99
f 62 99 63
f 63 99 100
f 63 100 64
f 64 100 101
f 64 101 65
f 65 101 102
f 65 102 66
f 66 102 103
f 66 103 67
f 67 103 104
f 67 104 68
f 68 104 105
f 68 105 69
f 69 105 106
f 69 106 70
f 70 106 107
f 70 107 71
f 71 107 108
f 71 108 72
f 72 108 109
f 72 109 73
f 73 109 110
f 73 110 74
f 74 110 111
f 74 111 75
f 75 111 112
f 75 112 76
f 76 112 113
f 76 113 77
f 77 113 114
f 77 114 78
f 78 114 115
f 78 115 79
f 79 115 116
f 79 116 80
f 80 116 81
f 80 81 45
f 81 117 118
f 81 118 82
f 82 118 119
f 82 119 83
f 83 119 120
f 83 120 84
f 84 120 121
f 84 121 85
f 85 121 122
f 85 122 86
f 86 122 123
f 86 123 87
f 87 123 124
f 87 124 88
f 88 124 125
f 88 125 89
f 89 125 126
f 89 126 90
f 90 126 127
f 90 127 91
f 91 127 128
f 91 128 92
f 92 128 129
f 92 129 93
f 93 129 130
f 93 130 94
f 94 130 131
f 94 131 95
f 95 131 132
f 95 132 96
f 96 132 133
f 96 133 97
f 97 133 134
f 97 134 98
f 98 134 135
f 98 135 99
f 99 135 136
f 99 136 100
f 100 136 137
f 100 137 101
f 101 137 138
f 101 138 102
f 102 138 139
f 102 139 103
f 103 139 140
f 103 140 104
f 104 140 141
f 104 141 105
f 105 141 142
f 105 142 106
f 106 142 143
f 106 143 107
f 107 143 144
f 107 144 108
f 108 144 145
f 108 145 109
f 109 145 146
f 109 146 110
f 110 146 147
f 110 147 111
f 111 147 148
f 111 148 112
f 112 148 149
f 112 149 113
f 113 149 150
f 113 150 114
f 114 150 151
f 114 151 115
f 115 151 152
f 115 152 116
f 116 152 117
f 116 117 81
f 153 9 10
f 153 10 11
f 153 11 12
f 153 12 13
f 153 13 14
f 153 14 15
f 153 15 16
f 153 16 17
f 153 17 18
f 153 18 19
f 153 19 20
f 153 20 21
f 153 21 22
f 153 22 23
f 153 23 24
f 153 24 25
f 153 25 26
f 153 26 27
f 153 27 28
f 153 28 29
f 153 29 30
f 153 30 31
f 153 31 32
f 153 32 33
f 153 33 34
f 153 34 35
f 153 35 36
f 153 36 37
f 153 37 38
f 153 38 39
f 153 39 40
f 153 40 41
f 153 41 42
f 153 42 43
f 153 43 44
f 153 44 9
f 154 118 117
f 154 119 118
f 154 120 119
f 154 121 120
f 154 122 121
f 154 123 122
f 154 124 123
f 154 125 124
f 154 126 125
f 154 127 126
f 154 128 127
f 154 129 128
f 154 130 129
f 154 131 130
f 154 132 131
f 154 133 132
f 154 134 133
f 154 135 134
f 154 136 135
f 154 137 136
f 154 138 137
f 154 139 138
f 154 140 139
f 154 141 140
f 154 142 141
f 154 143 142
f 154 144 143
f 154 145 144
f 154 146 145
f 154 147 146
f 154 148 147
f 154 149 148
f 154 150 149
f 154 151 150
f 154 152 151
f 154 117 152

o Btn_Camera
usemtl M_Black
v 0.03800000 -0.01150000 -0.00190000
v 0.03800000 -0.01150000 0.00190000
v 0.03800000 -0.00050000 -0.00190000
v 0.03800000 -0.00050000 0.00190000
v 0.03960000 -0.01150000 -0.00190000
v 0.03960000 -0.01150000 0.00190000
v 0.03960000 -0.00050000 -0.00190000
v 0.03960000 -0.00050000 0.00190000
f 156 158 155
f 159 156 155
f 155 158 157
f 157 159 155
f 156 162 158
f 160 156 159
f 160 162 156
f 158 162 157
f 161 159 157
f 157 162 161
f 161 160 159
f 162 160 161

o Btn_Power
usemtl M_Alu_Dark
v 0.03800000 0.02240000 -0.00210000
v 0.03800000 0.02240000 0.00210000
v 0.03800000 0.04360000 -0.00210000
v 0.03800000 0.04360000 0.00210000
v 0.03960000 0.02240000 -0.00210000
v 0.03960000 0.02240000 0.00210000
v 0.03960000 0.04360000 -0.00210000
v 0.03960000 0.04360000 0.00210000
f 164 166 163
f 167 164 163
f 163 166 165
f 165 167 163
f 164 170 166
f 168 164 167
f 168 170 164
f 166 170 165
f 169 167 165
f 165 170 169
f 169 168 167
f 170 168 169

o Btn_VolDown
usemtl M_Alu_Dark
v -0.03960000 0.00470000 -0.00210000
v -0.03960000 0.00470000 0.00210000
v -0.03960000 0.01970000 -0.00210000
v -0.03960000 0.01970000 0.00210000
v -0.03800000 0.00470000 -0.00210000
v -0.03800000 0.00470000 0.00210000
v -0.03800000 0.01970000 -0.00210000
v -0.03800000 0.01970000 0.00210000
f 172 174 171
f 175 172 171
f 171 174 173
f 173 175 171
f 172 178 174
f 176 172 175
f 176 178 172
f 174 178 173
f 177 175 173
f 173 178 177
f 177 176 175
f 178 176 177

o Btn_VolUp
usemtl M_Alu_Dark
v -0.03960000 0.02250000 -0.00210000
v -0.03960000 0.02250000 0.00210000
v -0.03960000 0.03750000 -0.00210000
v -0.03960000 0.03750000 0.00210000
v -0.03800000 0.02250000 -0.00210000
v -0.03800000 0.02250000 0.00210000
v -0.03800000 0.03750000 -0.00210000
v -0.03800000 0.03750000 0.00210000
f 180 182 179
f 183 180 179
f 179 182 181
f 181 183 179
f 180 186 182
f 184 180 183
f 184 186 180
f 182 186 181
f 185 183 181
f 181 186 185
f 185 184 183
f 186 184 185

o Btn_Action
usemtl M_Alu_Dark
v -0.03960000 0.04760000 -0.00210000
v -0.03960000 0.04760000 0.00210000
v -0.03960000 0.05480000 -0.00210000
v -0.03960000 0.05480000 0.00210000
v -0.03800000 0.04760000 -0.00210000
v -0.03800000 0.04760000 0.00210000
v -0.03800000 0.05480000 -0.00210000
v -0.03800000 0.05480000 0.00210000
f 188 190 187
f 191 188 187
f 187 190 189
f 189 191 187
f 188 194 190
f 192 188 191
f 192 194 188
f 190 194 189
f 193 191 189
f 189 194 193
f 193 192 191
f 194 192 193

o LiDAR
usemtl M_Black
v 0.02600000 0.04570000 -0.00747500
v 0.02980000 0.04570000 -0.00747500
v 0.02980000 0.04570000 -0.00667500
v 0.02600000 0.04570000 -0.00667500
v 0.02970473 0.04654558 -0.00747500
v 0.02970473 0.04654558 -0.00667500
v 0.02942368 0.04734876 -0.00747500
v 0.02942368 0.04734876 -0.00667500
v 0.02897096 0.04806926 -0.00747500
v 0.02897096 0.04806926 -0.00667500
v 0.02836926 0.04867096 -0.00747500
v 0.02836926 0.04867096 -0.00667500
v 0.02764876 0.04912368 -0.00747500
v 0.02764876 0.04912368 -0.00667500
v 0.02684558 0.04940473 -0.00747500
v 0.02684558 0.04940473 -0.00667500
v 0.02600000 0.04950000 -0.00747500
v 0.02600000 0.04950000 -0.00667500
v 0.02515442 0.04940473 -0.00747500
v 0.02515442 0.04940473 -0.00667500
v 0.02435124 0.04912368 -0.00747500
v 0.02435124 0.04912368 -0.00667500
v 0.02363074 0.04867096 -0.00747500
v 0.02363074 0.04867096 -0.00667500
v 0.02302904 0.04806926 -0.00747500
v 0.02302904 0.04806926 -0.00667500
v 0.02257632 0.04734876 -0.00747500
v 0.02257632 0.04734876 -0.00667500
v 0.02229527 0.04654558 -0.00747500
v 0.02229527 0.04654558 -0.00667500
v 0.02220000 0.04570000 -0.00747500
v 0.02220000 0.04570000 -0.00667500
v 0.02229527 0.04485442 -0.00747500
v 0.02229527 0.04485442 -0.00667500
v 0.02257632 0.04405124 -0.00747500
v 0.02257632 0.04405124 -0.00667500
v 0.02302904 0.04333074 -0.00747500
v 0.02302904 0.04333074 -0.00667500
v 0.02363074 0.04272904 -0.00747500
v 0.02363074 0.04272904 -0.00667500
v 0.02435124 0.04227632 -0.00747500
v 0.02435124 0.04227632 -0.00667500
v 0.02515442 0.04199528 -0.00747500
v 0.02515442 0.04199528 -0.00667500
v 0.02600000 0.04190000 -0.00747500
v 0.02600000 0.04190000 -0.00667500
v 0.02684558 0.04199528 -0.00747500
v 0.02684558 0.04199528 -0.00667500
v 0.02764876 0.04227632 -0.00747500
v 0.02764876 0.04227632 -0.00667500
v 0.02836926 0.04272904 -0.00747500
v 0.02836926 0.04272904 -0.00667500
v 0.02897096 0.04333074 -0.00747500
v 0.02897096 0.04333074 -0.00667500
v 0.02942368 0.04405124 -0.00747500
v 0.02942368 0.04405124 -0.00667500
v 0.02970473 0.04485442 -0.00747500
v 0.02970473 0.04485442 -0.00667500
f 196 195 199
f 196 199 197
f 197 199 200
f 197 200 198
f 199 195 201
f 199 201 200
f 200 201 202
f 200 202 198
f 201 195 203
f 201 203 202
f 202 203 204
f 202 204 198
f 203 195 205
f 203 205 204
f 204 205 206
f 204 206 198
f 205 195 207
f 205 207 206
f 206 207 208
f 206 208 198
f 207 195 209
f 207 209 208
f 208 209 210
f 208 210 198
f 209 195 211
f 209 211 210
f 210 211 212
f 210 212 198
f 211 195 213
f 211 213 212
f 212 213 214
f 212 214 198
f 213 195 215
f 213 215 214
f 214 215 216
f 214 216 198
f 215 195 217
f 215 217 216
f 216 217 218
f 216 218 198
f 217 195 219
f 217 219 218
f 218 219 220
f 218 220 198
f 219 195 221
f 219 221 220
f 220 221 222
f 220 222 198
f 221 195 223
f 221 223 222
f 222 223 224
f 222 224 198
f 223 195 225
f 223 225 224
f 224 225 226
f 224 226 198
f 225 195 227
f 225 227 226
f 226 227 228
f 226 228 198
f 227 195 229
f 227 229 228
f 228 229 230
f 228 230 198
f 229 195 231
f 229 231 230
f 230 231 232
f 230 232 198
f 231 195 233
f 231 233 232
f 232 233 234
f 232 234 198
f 233 195 235
f 233 235 234
f 234 235 236
f 234 236 198
f 235 195 237
f 235 237 236
f 236 237 238
f 236 238 198
f 237 195 239
f 237 239 238
f 238 239 240
f 238 240 198
f 239 195 241
f 239 241 240
f 240 241 242
f 240 242 198
f 241 195 243
f 241 243 242
f 242 243 244
f 242 244 198
f 243 195 245
f 243 245 244
f 244 245 246
f 244 246 198
f 245 195 247
f 245 247 246
f 246 247 248
f 246 248 198
f 247 195 249
f 247 249 248
f 248 249 250
f 248 250 198
f 249 195 251
f 249 251 250
f 250 251 252
f 250 252 198
f 251 195 196
f 251 196 252
f 252 196 197
f 252 197 198

o Mic
usemtl M_Black
v 0.02600000 0.05700000 -0.00727500
v 0.02670000 0.05700000 -0.00727500
v 0.02670000 0.05700000 -0.00667500
v 0.02600000 0.05700000 -0.00667500
v 0.02668245 0.05715577 -0.00727500
v 0.02668245 0.05715577 -0.00667500
v 0.02663068 0.05730372 -0.00727500
v 0.02663068 0.05730372 -0.00667500
v 0.02654728 0.05743644 -0.00727500
v 0.02654728 0.05743644 -0.00667500
v 0.02643644 0.05754728 -0.00727500
v 0.02643644 0.05754728 -0.00667500
v 0.02630372 0.05763068 -0.00727500
v 0.02630372 0.05763068 -0.00667500
v 0.02615576 0.05768245 -0.00727500
v 0.02615576 0.05768245 -0.00667500
v 0.02600000 0.05770000 -0.00727500
v 0.02600000 0.05770000 -0.00667500
v 0.02584423 0.05768245 -0.00727500
v 0.02584423 0.05768245 -0.00667500
v 0.02569628 0.05763068 -0.00727500
v 0.02569628 0.05763068 -0.00667500
v 0.02556356 0.05754728 -0.00727500
v 0.02556356 0.05754728 -0.00667500
v 0.02545272 0.05743644 -0.00727500
v 0.02545272 0.05743644 -0.00667500
v 0.02536932 0.05730372 -0.00727500
v 0.02536932 0.05730372 -0.00667500
v 0.02531755 0.05715577 -0.00727500
v 0.02531755 0.05715577 -0.00667500
v 0.02530000 0.05700000 -0.00727500
v 0.02530000 0.05700000 -0.00667500
v 0.02531755 0.05684423 -0.00727500
v 0.02531755 0.05684423 -0.00667500
v 0.02536932 0.05669628 -0.00727500
v 0.02536932 0.05669628 -0.00667500
v 0.02545272 0.05656356 -0.00727500
v 0.02545272 0.05656356 -0.00667500
v 0.02556356 0.05645272 -0.00727500
v 0.02556356 0.05645272 -0.00667500
v 0.02569628 0.05636932 -0.00727500
v 0.02569628 0.05636932 -0.00667500
v 0.02584423 0.05631755 -0.00727500
v 0.02584423 0.05631755 -0.00667500
v 0.02600000 0.05630000 -0.00727500
v 0.02600000 0.05630000 -0.00667500
v 0.02615576 0.05631755 -0.00727500
v 0.02615576 0.05631755 -0.00667500
v 0.02630372 0.05636932 -0.00727500
v 0.02630372 0.05636932 -0.00667500
v 0.02643644 0.05645272 -0.00727500
v 0.02643644 0.05645272 -0.00667500
v 0.02654728 0.05656356 -0.00727500
v 0.02654728 0.05656356 -0.00667500
v 0.02663068 0.05669628 -0.00727500
v 0.02663068 0.05669628 -0.00667500
v 0.02668245 0.05684423 -0.00727500
v 0.02668245 0.05684423 -0.00667500
f 254 253 257
f 254 257 255
f 255 257 258
f 255 258 256
f 257 253 259
f 257 259 258
f 258 259 260
f 258 260 256
f 259 253 261
f 259 261 260
f 260 261 262
f 260 262 256
f 261 253 263
f 261 263 262
f 262 263 264
f 262 264 256
f 263 253 265
f 263 265 264
f 264 265 266
f 264 266 256
f 265 253 267
f 265 267 266
f 266 267 268
f 266 268 256
f 267 253 269
f 267 269 268
f 268 269 270
f 268 270 256
f 269 253 271
f 269 271 270
f 270 271 272
f 270 272 256
f 271 253 273
f 271 273 272
f 272 273 274
f 272 274 256
f 273 253 275
f 273 275 274
f 274 275 276
f 274 276 256
f 275 253 277
f 275 277 276
f 276 277 278
f 276 278 256
f 277 253 279
f 277 279 278
f 278 279 280
f 278 280 256
f 279 253 281
f 279 281 280
f 280 281 282
f 280 282 256
f 281 253 283
f 281 283 282
f 282 283 284
f 282 284 256
f 283 253 285
f 283 285 284
f 284 285 286
f 284 286 256
f 285 253 287
f 285 287 286
f 286 287 288
f 286 288 256
f 287 253 289
f 287 289 288
f 288 289 290
f 288 290 256
f 289 253 291
f 289 291 290
f 290 291 292
f 290 292 256
f 291 253 293
f 291 293 292
f 292 293 294
f 292 294 256
f 293 253 295
f 293 295 294
f 294 295 296
f 294 296 256
f 295 253 297
f 295 297 296
f 296 297 298
f 296 298 256
f 297 253 299
f 297 299 298
f 298 299 300
f 298 300 256
f 299 253 301
f 299 301 300
f 300 301 302
f 300 302 256
f 301 253 303
f 301 303 302
f 302 303 304
f 302 304 256
f 303 253 305
f 303 305 304
f 304 305 306
f 304 306 256
f 305 253 307
f 305 307 306
f 306 307 308
f 306 308 256
f 307 253 309
f 307 309 308
f 308 309 310
f 308 310 256
f 309 253 254
f 309 254 310
f 310 254 255
f 310 255 256

o Flash
usemtl M_LensRing
v 0.02600000 0.06870000 -0.00747500
v 0.03060000 0.06870000 -0.00747500
v 0.03060000 0.06870000 -0.00667500
v 0.02600000 0.06870000 -0.00667500
v 0.03048467 0.06972360 -0.00747500
v 0.03048467 0.06972360 -0.00667500
v 0.03014446 0.07069586 -0.00747500
v 0.03014446 0.07069586 -0.00667500
v 0.02959643 0.07156805 -0.00747500
v 0.02959643 0.07156805 -0.00667500
v 0.02886805 0.07229643 -0.00747500
v 0.02886805 0.07229643 -0.00667500
v 0.02799587 0.07284445 -0.00747500
v 0.02799587 0.07284445 -0.00667500
v 0.02702360 0.07318467 -0.00747500
v 0.02702360 0.07318467 -0.00667500
v 0.02600000 0.07330000 -0.00747500
v 0.02600000 0.07330000 -0.00667500
v 0.02497640 0.07318467 -0.00747500
v 0.02497640 0.07318467 -0.00667500
v 0.02400414 0.07284445 -0.00747500
v 0.02400414 0.07284445 -0.00667500
v 0.02313195 0.07229643 -0.00747500
v 0.02313195 0.07229643 -0.00667500
v 0.02240358 0.07156805 -0.00747500
v 0.02240358 0.07156805 -0.00667500
v 0.02185554 0.07069586 -0.00747500
v 0.02185554 0.07069586 -0.00667500
v 0.02151533 0.06972360 -0.00747500
v 0.02151533 0.06972360 -0.00667500
v 0.02140000 0.06870000 -0.00747500
v 0.02140000 0.06870000 -0.00667500
v 0.02151533 0.06767640 -0.00747500
v 0.02151533 0.06767640 -0.00667500
v 0.02185554 0.06670413 -0.00747500
v 0.02185554 0.06670413 -0.00667500
v 0.02240358 0.06583194 -0.00747500
v 0.02240358 0.06583194 -0.00667500
v 0.02313195 0.06510358 -0.00747500
v 0.02313195 0.06510358 -0.00667500
v 0.02400414 0.06455554 -0.00747500
v 0.02400414 0.06455554 -0.00667500
v 0.02497640 0.06421533 -0.00747500
v 0.02497640 0.06421533 -0.00667500
v 0.02600000 0.06410000 -0.00747500
v 0.02600000 0.06410000 -0.00667500
v 0.02702360 0.06421533 -0.00747500
v 0.02702360 0.06421533 -0.00667500
v 0.02799587 0.06455554 -0.00747500
v 0.02799587 0.06455554 -0.00667500
v 0.02886805 0.06510358 -0.00747500
v 0.02886805 0.06510358 -0.00667500
v 0.02959643 0.06583194 -0.00747500
v 0.02959643 0.06583194 -0.00667500
v 0.03014446 0.06670413 -0.00747500
v 0.03014446 0.06670413 -0.00667500
v 0.03048467 0.06767640 -0.00747500
v 0.03048467 0.06767640 -0.00667500
f 312 311 315
f 312 315 313
f 313 315 316
f 313 316 314
f 315 311 317
f 315 317 316
f 316 317 318
f 316 318 314
f 317 311 319
f 317 319 318
f 318 319 320
f 318 320 314
f 319 311 321
f 319 321 320
f 320 321 322
f 320 322 314
f 321 311 323
f 321 323 322
f 322 323 324
f 322 324 314
f 323 311 325
f 323 325 324
f 324 325 326
f 324 326 314
f 325 311 327
f 325 327 326
f 326 327 328
f 326 328 314
f 327 311 329
f 327 329 328
f 328 329 330
f 328 330 314
f 329 311 331
f 329 331 330
f 330 331 332
f 330 332 314
f 331 311 333
f 331 333 332
f 332 333 334
f 332 334 314
f 333 311 335
f 333 335 334
f 334 335 336
f 334 336 314
f 335 311 337
f 335 337 336
f 336 337 338
f 336 338 314
f 337 311 339
f 337 339 338
f 338 339 340
f 338 340 314
f 339 311 341
f 339 341 340
f 340 341 342
f 340 342 314
f 341 311 343
f 341 343 342
f 342 343 344
f 342 344 314
f 343 311 345
f 343 345 344
f 344 345 346
f 344 346 314
f 345 311 347
f 345 347 346
f 346 347 348
f 346 348 314
f 347 311 349
f 347 349 348
f 348 349 350
f 348 350 314
f 349 311 351
f 349 351 350
f 350 351 352
f 350 352 314
f 351 311 353
f 351 353 352
f 352 353 354
f 352 354 314
f 353 311 355
f 353 355 354
f 354 355 356
f 354 356 314
f 355 311 357
f 355 357 356
f 356 357 358
f 356 358 314
f 357 311 359
f 357 359 358
f 358 359 360
f 358 360 314
f 359 311 361
f 359 361 360
f 360 361 362
f 360 362 314
f 361 311 363
f 361 363 362
f 362 363 364
f 362 364 314
f 363 311 365
f 363 365 364
f 364 365 366
f 364 366 314
f 365 311 367
f 365 367 366
f 366 367 368
f 366 368 314
f 367 311 312
f 367 312 368
f 368 312 313
f 368 313 314

o LensGlass_3
usemtl M_LensGlass
v -0.00290000 0.05620000 -0.00802500
v 0.00330000 0.05620000 -0.00802500
v 0.00330000 0.05620000 -0.00692500
v -0.00290000 0.05620000 -0.00692500
v 0.00314455 0.05757963 -0.00802500
v 0.00314455 0.05757963 -0.00692500
v 0.00268601 0.05889008 -0.00802500
v 0.00268601 0.05889008 -0.00692500
v 0.00194736 0.06006564 -0.00802500
v 0.00194736 0.06006564 -0.00692500
v 0.00096564 0.06104736 -0.00802500
v 0.00096564 0.06104736 -0.00692500
v -0.00020992 0.06178601 -0.00802500
v -0.00020992 0.06178601 -0.00692500
v -0.00152037 0.06224455 -0.00802500
v -0.00152037 0.06224455 -0.00692500
v -0.00290000 0.06240000 -0.00802500
v -0.00290000 0.06240000 -0.00692500
v -0.00427963 0.06224455 -0.00802500
v -0.00427963 0.06224455 -0.00692500
v -0.00559008 0.06178601 -0.00802500
v -0.00559008 0.06178601 -0.00692500
v -0.00676564 0.06104736 -0.00802500
v -0.00676564 0.06104736 -0.00692500
v -0.00774736 0.06006564 -0.00802500
v -0.00774736 0.06006564 -0.00692500
v -0.00848601 0.05889008 -0.00802500
v -0.00848601 0.05889008 -0.00692500
v -0.00894455 0.05757963 -0.00802500
v -0.00894455 0.05757963 -0.00692500
v -0.00910000 0.05620000 -0.00802500
v -0.00910000 0.05620000 -0.00692500
v -0.00894455 0.05482037 -0.00802500
v -0.00894455 0.05482037 -0.00692500
v -0.00848601 0.05350992 -0.00802500
v -0.00848601 0.05350992 -0.00692500
v -0.00774736 0.05233436 -0.00802500
v -0.00774736 0.05233436 -0.00692500
v -0.00676564 0.05135265 -0.00802500
v -0.00676564 0.05135265 -0.00692500
v -0.00559008 0.05061399 -0.00802500
v -0.00559008 0.05061399 -0.00692500
v -0.00427963 0.05015545 -0.00802500
v -0.00427963 0.05015545 -0.00692500
v -0.00290000 0.05000000 -0.00802500
v -0.00290000 0.05000000 -0.00692500
v -0.00152037 0.05015545 -0.00802500
v -0.00152037 0.05015545 -0.00692500
v -0.00020992 0.05061399 -0.00802500
v -0.00020992 0.05061399 -0.00692500
v 0.00096564 0.05135265 -0.00802500
v 0.00096564 0.05135265 -0.00692500
v 0.00194736 0.05233436 -0.00802500
v 0.00194736 0.05233436 -0.00692500
v 0.00268601 0.05350992 -0.00802500
v 0.00268601 0.05350992 -0.00692500
v 0.00314455 0.05482037 -0.00802500
v 0.00314455 0.05482037 -0.00692500
f 370 369 373
f 370 373 371
f 371 373 374
f 371 374 372
f 373 369 375
f 373 375 374
f 374 375 376
f 374 376 372
f 375 369 377
f 375 377 376
f 376 377 378
f 376 378 372
f 377 369 379
f 377 379 378
f 378 379 380
f 378 380 372
f 379 369 381
f 379 381 380
f 380 381 382
f 380 382 372
f 381 369 383
f 381 383 382
f 382 383 384
f 382 384 372
f 383 369 385
f 383 385 384
f 384 385 386
f 384 386 372
f 385 369 387
f 385 387 386
f 386 387 388
f 386 388 372
f 387 369 389
f 387 389 388
f 388 389 390
f 388 390 372
f 389 369 391
f 389 391 390
f 390 391 392
f 390 392 372
f 391 369 393
f 391 393 392
f 392 393 394
f 392 394 372
f 393 369 395
f 393 395 394
f 394 395 396
f 394 396 372
f 395 369 397
f 395 397 396
f 396 397 398
f 396 398 372
f 397 369 399
f 397 399 398
f 398 399 400
f 398 400 372
f 399 369 401
f 399 401 400
f 400 401 402
f 400 402 372
f 401 369 403
f 401 403 402
f 402 403 404
f 402 404 372
f 403 369 405
f 403 405 404
f 404 405 406
f 404 406 372
f 405 369 407
f 405 407 406
f 406 407 408
f 406 408 372
f 407 369 409
f 407 409 408
f 408 409 410
f 408 410 372
f 409 369 411
f 409 411 410
f 410 411 412
f 410 412 372
f 411 369 413
f 411 413 412
f 412 413 414
f 412 414 372
f 413 369 415
f 413 415 414
f 414 415 416
f 414 416 372
f 415 369 417
f 415 417 416
f 416 417 418
f 416 418 372
f 417 369 419
f 417 419 418
f 418 419 420
f 418 420 372
f 419 369 421
f 419 421 420
f 420 421 422
f 420 422 372
f 421 369 423
f 421 423 422
f 422 423 424
f 422 424 372
f 423 369 425
f 423 425 424
f 424 425 426
f 424 426 372
f 425 369 370
f 425 370 426
f 426 370 371
f 426 371 372

o LensRing_3
usemtl M_LensRing
v 0.00545000 0.05620000 -0.00667500
v 0.00524065 0.05805805 -0.00667500
v 0.00462309 0.05982293 -0.00667500
v 0.00362829 0.06140614 -0.00667500
v 0.00230614 0.06272829 -0.00667500
v 0.00072293 0.06372309 -0.00667500
v -0.00104195 0.06434065 -0.00667500
v -0.00290000 0.06455000 -0.00667500
v -0.00475805 0.06434065 -0.00667500
v -0.00652293 0.06372309 -0.00667500
v -0.00810614 0.06272829 -0.00667500
v -0.00942829 0.06140614 -0.00667500
v -0.01042309 0.05982293 -0.00667500
v -0.01104065 0.05805805 -0.00667500
v -0.01125000 0.05620000 -0.00667500
v -0.01104065 0.05434195 -0.00667500
v -0.01042309 0.05257707 -0.00667500
v -0.00942829 0.05099386 -0.00667500
v -0.00810614 0.04967171 -0.00667500
v -0.00652293 0.04867691 -0.00667500
v -0.00475805 0.04805935 -0.00667500
v -0.00290000 0.04785000 -0.00667500
v -0.00104195 0.04805935 -0.00667500
v 0.00072293 0.04867691 -0.00667500
v 0.00230614 0.04967171 -0.00667500
v 0.00362829 0.05099386 -0.00667500
v 0.00462309 0.05257707 -0.00667500
v 0.00524065 0.05434195 -0.00667500
v 0.00545000 0.05620000 -0.00827500
v 0.00524065 0.05805805 -0.00827500
v 0.00462309 0.05982293 -0.00827500
v 0.00362829 0.06140614 -0.00827500
v 0.00230614 0.06272829 -0.00827500
v 0.00072293 0.06372309 -0.00827500
v -0.00104195 0.06434065 -0.00827500
v -0.00290000 0.06455000 -0.00827500
v -0.00475805 0.06434065 -0.00827500
v -0.00652293 0.06372309 -0.00827500
v -0.00810614 0.06272829 -0.00827500
v -0.00942829 0.06140614 -0.00827500
v -0.01042309 0.05982293 -0.00827500
v -0.01104065 0.05805805 -0.00827500
v -0.01125000 0.05620000 -0.00827500
v -0.01104065 0.05434195 -0.00827500
v -0.01042309 0.05257707 -0.00827500
v -0.00942829 0.05099386 -0.00827500
v -0.00810614 0.04967171 -0.00827500
v -0.00652293 0.04867691 -0.00827500
v -0.00475805 0.04805935 -0.00827500
v -0.00290000 0.04785000 -0.00827500
v -0.00104195 0.04805935 -0.00827500
v 0.00072293 0.04867691 -0.00827500
v 0.00230614 0.04967171 -0.00827500
v 0.00362829 0.05099386 -0.00827500
v 0.00462309 0.05257707 -0.00827500
v 0.00524065 0.05434195 -0.00827500
v 0.00330000 0.05620000 -0.00827500
v 0.00314455 0.05757963 -0.00827500
v 0.00268601 0.05889008 -0.00827500
v 0.00194736 0.06006564 -0.00827500
v 0.00096564 0.06104736 -0.00827500
v -0.00020992 0.06178601 -0.00827500
v -0.00152037 0.06224455 -0.00827500
v -0.00290000 0.06240000 -0.00827500
v -0.00427963 0.06224455 -0.00827500
v -0.00559008 0.06178601 -0.00827500
v -0.00676564 0.06104736 -0.00827500
v -0.00774736 0.06006564 -0.00827500
v -0.00848601 0.05889008 -0.00827500
v -0.00894455 0.05757963 -0.00827500
v -0.00910000 0.05620000 -0.00827500
v -0.00894455 0.05482037 -0.00827500
v -0.00848601 0.05350992 -0.00827500
v -0.00774736 0.05233436 -0.00827500
v -0.00676564 0.05135265 -0.00827500
v -0.00559008 0.05061399 -0.00827500
v -0.00427963 0.05015545 -0.00827500
v -0.00290000 0.05000000 -0.00827500
v -0.00152037 0.05015545 -0.00827500
v -0.00020992 0.05061399 -0.00827500
v 0.00096564 0.05135265 -0.00827500
v 0.00194736 0.05233436 -0.00827500
v 0.00268601 0.05350992 -0.00827500
v 0.00314455 0.05482037 -0.00827500
v 0.00330000 0.05620000 -0.00667500
v 0.00314455 0.05757963 -0.00667500
v 0.00268601 0.05889008 -0.00667500
v 0.00194736 0.06006564 -0.00667500
v 0.00096564 0.06104736 -0.00667500
v -0.00020992 0.06178601 -0.00667500
v -0.00152037 0.06224455 -0.00667500
v -0.00290000 0.06240000 -0.00667500
v -0.00427963 0.06224455 -0.00667500
v -0.00559008 0.06178601 -0.00667500
v -0.00676564 0.06104736 -0.00667500
v -0.00774736 0.06006564 -0.00667500
v -0.00848601 0.05889008 -0.00667500
v -0.00894455 0.05757963 -0.00667500
v -0.00910000 0.05620000 -0.00667500
v -0.00894455 0.05482037 -0.00667500
v -0.00848601 0.05350992 -0.00667500
v -0.00774736 0.05233436 -0.00667500
v -0.00676564 0.05135265 -0.00667500
v -0.00559008 0.05061399 -0.00667500
v -0.00427963 0.05015545 -0.00667500
v -0.00290000 0.05000000 -0.00667500
v -0.00152037 0.05015545 -0.00667500
v -0.00020992 0.05061399 -0.00667500
v 0.00096564 0.05135265 -0.00667500
v 0.00194736 0.05233436 -0.00667500
v 0.00268601 0.05350992 -0.00667500
v 0.00314455 0.05482037 -0.00667500
f 427 455 456
f 427 456 428
f 428 456 457
f 428 457 429
f 429 457 458
f 429 458 430
f 430 458 459
f 430 459 431
f 431 459 460
f 431 460 432
f 432 460 461
f 432 461 433
f 433 461 462
f 433 462 434
f 434 462 463
f 434 463 435
f 435 463 464
f 435 464 436
f 436 464 465
f 436 465 437
f 437 465 466
f 437 466 438
f 438 466 467
f 438 467 439
f 439 467 468
f 439 468 440
f 440 468 469
f 440 469 441
f 441 469 470
f 441 470 442
f 442 470 471
f 442 471 443
f 443 471 472
f 443 472 444
f 444 472 473
f 444 473 445
f 445 473 474
f 445 474 446
f 446 474 475
f 446 475 447
f 447 475 476
f 447 476 448
f 448 476 477
f 448 477 449
f 449 477 478
f 449 478 450
f 450 478 479
f 450 479 451
f 451 479 480
f 451 480 452
f 452 480 481
f 452 481 453
f 453 481 482
f 453 482 454
f 454 482 455
f 454 455 427
f 455 483 484
f 455 484 456
f 456 484 485
f 456 485 457
f 457 485 486
f 457 486 458
f 458 486 487
f 458 487 459
f 459 487 488
f 459 488 460
f 460 488 489
f 460 489 461
f 461 489 490
f 461 490 462
f 462 490 491
f 462 491 463
f 463 491 492
f 463 492 464
f 464 492 493
f 464 493 465
f 465 493 494
f 465 494 466
f 466 494 495
f 466 495 467
f 467 495 496
f 467 496 468
f 468 496 497
f 468 497 469
f 469 497 498
f 469 498 470
f 470 498 499
f 470 499 471
f 471 499 500
f 471 500 472
f 472 500 501
f 472 501 473
f 473 501 502
f 473 502 474
f 474 502 503
f 474 503 475
f 475 503 504
f 475 504 476
f 476 504 505
f 476 505 477
f 477 505 506
f 477 506 478
f 478 506 507
f 478 507 479
f 479 507 508
f 479 508 480
f 480 508 509
f 480 509 481
f 481 509 510
f 481 510 482
f 482 510 483
f 482 483 455
f 483 511 512
f 483 512 484
f 484 512 513
f 484 513 485
f 485 513 514
f 485 514 486
f 486 514 515
f 486 515 487
f 487 515 516
f 487 516 488
f 488 516 517
f 488 517 489
f 489 517 518
f 489 518 490
f 490 518 519
f 490 519 491
f 491 519 520
f 491 520 492
f 492 520 521
f 492 521 493
f 493 521 522
f 493 522 494
f 494 522 523
f 494 523 495
f 495 523 524
f 495 524 496
f 496 524 525
f 496 525 497
f 497 525 526
f 497 526 498
f 498 526 527
f 498 527 499
f 499 527 528
f 499 528 500
f 500 528 529
f 500 529 501
f 501 529 530
f 501 530 502
f 502 530 531
f 502 531 503
f 503 531 532
f 503 532 504
f 504 532 533
f 504 533 505
f 505 533 534
f 505 534 506
f 506 534 535
f 506 535 507
f 507 535 536
f 507 536 508
f 508 536 537
f 508 537 509
f 509 537 538
f 509 538 510
f 510 538 511
f 510 511 483
f 511 427 428
f 511 428 512
f 512 428 429
f 512 429 513
f 513 429 430
f 513 430 514
f 514 430 431
f 514 431 515
f 515 431 432
f 515 432 516
f 516 432 433
f 516 433 517
f 517 433 434
f 517 434 518
f 518 434 435
f 518 435 519
f 519 435 436
f 519 436 520
f 520 436 437
f 520 437 521
f 521 437 438
f 521 438 522
f 522 438 439
f 522 439 523
f 523 439 440
f 523 440 524
f 524 440 441
f 524 441 525
f 525 441 442
f 525 442 526
f 526 442 443
f 526 443 527
f 527 443 444
f 527 444 528
f 528 444 445
f 528 445 529
f 529 445 446
f 529 446 530
f 530 446 447
f 530 447 531
f 531 447 448
f 531 448 532
f 532 448 449
f 532 449 533
f 533 449 450
f 533 450 534
f 534 450 451
f 534 451 535
f 535 451 452
f 535 452 536
f 536 452 453
f 536 453 537
f 537 453 454
f 537 454 538
f 538 454 427
f 538 427 511

o LensGlass_2
usemtl M_LensGlass
v -0.02200000 0.04645000 -0.00802500
v -0.01580000 0.04645000 -0.00802500
v -0.01580000 0.04645000 -0.00692500
v -0.02200000 0.04645000 -0.00692500
v -0.01595545 0.04782963 -0.00802500
v -0.01595545 0.04782963 -0.00692500
v -0.01641399 0.04914008 -0.00802500
v -0.01641399 0.04914008 -0.00692500
v -0.01715264 0.05031564 -0.00802500
v -0.01715264 0.05031564 -0.00692500
v -0.01813436 0.05129736 -0.00802500
v -0.01813436 0.05129736 -0.00692500
v -0.01930992 0.05203601 -0.00802500
v -0.01930992 0.05203601 -0.00692500
v -0.02062037 0.05249455 -0.00802500
v -0.02062037 0.05249455 -0.00692500
v -0.02200000 0.05265000 -0.00802500
v -0.02200000 0.05265000 -0.00692500
v -0.02337963 0.05249455 -0.00802500
v -0.02337963 0.05249455 -0.00692500
v -0.02469008 0.05203601 -0.00802500
v -0.02469008 0.05203601 -0.00692500
v -0.02586564 0.05129736 -0.00802500
v -0.02586564 0.05129736 -0.00692500
v -0.02684736 0.05031564 -0.00802500
v -0.02684736 0.05031564 -0.00692500
v -0.02758601 0.04914008 -0.00802500
v -0.02758601 0.04914008 -0.00692500
v -0.02804455 0.04782963 -0.00802500
v -0.02804455 0.04782963 -0.00692500
v -0.02820000 0.04645000 -0.00802500
v -0.02820000 0.04645000 -0.00692500
v -0.02804455 0.04507037 -0.00802500
v -0.02804455 0.04507037 -0.00692500
v -0.02758601 0.04375992 -0.00802500
v -0.02758601 0.04375992 -0.00692500
v -0.02684736 0.04258436 -0.00802500
v -0.02684736 0.04258436 -0.00692500
v -0.02586564 0.04160265 -0.00802500
v -0.02586564 0.04160265 -0.00692500
v -0.02469008 0.04086399 -0.00802500
v -0.02469008 0.04086399 -0.00692500
v -0.02337963 0.04040545 -0.00802500
v -0.02337963 0.04040545 -0.00692500
v -0.02200000 0.04025000 -0.00802500
v -0.02200000 0.04025000 -0.00692500
v -0.02062037 0.04040545 -0.00802500
v -0.02062037 0.04040545 -0.00692500
v -0.01930992 0.04086399 -0.00802500
v -0.01930992 0.04086399 -0.00692500
v -0.01813436 0.04160265 -0.00802500
v -0.01813436 0.04160265 -0.00692500
v -0.01715264 0.04258436 -0.00802500
v -0.01715264 0.04258436 -0.00692500
v -0.01641399 0.04375992 -0.00802500
v -0.01641399 0.04375992 -0.00692500
v -0.01595545 0.04507037 -0.00802500
v -0.01595545 0.04507037 -0.00692500
f 540 539 543
f 540 543 541
f 541 543 544
f 541 544 542
f 543 539 545
f 543 545 544
f 544 545 546
f 544 546 542
f 545 539 547
f 545 547 546
f 546 547 548
f 546 548 542
f 547 539 549
f 547 549 548
f 548 549 550
f 548 550 542
f 549 539 551
f 549 551 550
f 550 551 552
f 550 552 542
f 551 539 553
f 551 553 552
f 552 553 554
f 552 554 542
f 553 539 555
f 553 555 554
f 554 555 556
f 554 556 542
f 555 539 557
f 555 557 556
f 556 557 558
f 556 558 542
f 557 539 559
f 557 559 558
f 558 559 560
f 558 560 542
f 559 539 561
f 559 561 560
f 560 561 562
f 560 562 542
f 561 539 563
f 561 563 562
f 562 563 564
f 562 564 542
f 563 539 565
f 563 565 564
f 564 565 566
f 564 566 542
f 565 539 567
f 565 567 566
f 566 567 568
f 566 568 542
f 567 539 569
f 567 569 568
f 568 569 570
f 568 570 542
f 569 539 571
f 569 571 570
f 570 571 572
f 570 572 542
f 571 539 573
f 571 573 572
f 572 573 574
f 572 574 542
f 573 539 575
f 573 575 574
f 574 575 576
f 574 576 542
f 575 539 577
f 575 577 576
f 576 577 578
f 576 578 542
f 577 539 579
f 577 579 578
f 578 579 580
f 578 580 542
f 579 539 581
f 579 581 580
f 580 581 582
f 580 582 542
f 581 539 583
f 581 583 582
f 582 583 584
f 582 584 542
f 583 539 585
f 583 585 584
f 584 585 586
f 584 586 542
f 585 539 587
f 585 587 586
f 586 587 588
f 586 588 542
f 587 539 589
f 587 589 588
f 588 589 590
f 588 590 542
f 589 539 591
f 589 591 590
f 590 591 592
f 590 592 542
f 591 539 593
f 591 593 592
f 592 593 594
f 592 594 542
f 593 539 595
f 593 595 594
f 594 595 596
f 594 596 542
f 595 539 540
f 595 540 596
f 596 540 541
f 596 541 542

o LensRing_2
usemtl M_LensRing
v -0.01365000 0.04645000 -0.00667500
v -0.01385935 0.04830805 -0.00667500
v -0.01447691 0.05007293 -0.00667500
v -0.01547171 0.05165614 -0.00667500
v -0.01679386 0.05297829 -0.00667500
v -0.01837707 0.05397309 -0.00667500
v -0.02014195 0.05459065 -0.00667500
v -0.02200000 0.05480000 -0.00667500
v -0.02385805 0.05459065 -0.00667500
v -0.02562293 0.05397309 -0.00667500
v -0.02720614 0.05297829 -0.00667500
v -0.02852829 0.05165614 -0.00667500
v -0.02952309 0.05007293 -0.00667500
v -0.03014065 0.04830805 -0.00667500
v -0.03035000 0.04645000 -0.00667500
v -0.03014065 0.04459195 -0.00667500
v -0.02952309 0.04282707 -0.00667500
v -0.02852829 0.04124386 -0.00667500
v -0.02720614 0.03992171 -0.00667500
v -0.02562293 0.03892691 -0.00667500
v -0.02385805 0.03830935 -0.00667500
v -0.02200000 0.03810000 -0.00667500
v -0.02014195 0.03830935 -0.00667500
v -0.01837707 0.03892691 -0.00667500
v -0.01679386 0.03992171 -0.00667500
v -0.01547171 0.04124386 -0.00667500
v -0.01447691 0.04282707 -0.00667500
v -0.01385935 0.04459195 -0.00667500
v -0.01365000 0.04645000 -0.00827500
v -0.01385935 0.04830805 -0.00827500
v -0.01447691 0.05007293 -0.00827500
v -0.01547171 0.05165614 -0.00827500
v -0.01679386 0.05297829 -0.00827500
v -0.01837707 0.05397309 -0.00827500
v -0.02014195 0.05459065 -0.00827500
v -0.02200000 0.05480000 -0.00827500
v -0.02385805 0.05459065 -0.00827500
v -0.02562293 0.05397309 -0.00827500
v -0.02720614 0.05297829 -0.00827500
v -0.02852829 0.05165614 -0.00827500
v -0.02952309 0.05007293 -0.00827500
v -0.03014065 0.04830805 -0.00827500
v -0.03035000 0.04645000 -0.00827500
v -0.03014065 0.04459195 -0.00827500
v -0.02952309 0.04282707 -0.00827500
v -0.02852829 0.04124386 -0.00827500
v -0.02720614 0.03992171 -0.00827500
v -0.02562293 0.03892691 -0.00827500
v -0.02385805 0.03830935 -0.00827500
v -0.02200000 0.03810000 -0.00827500
v -0.02014195 0.03830935 -0.00827500
v -0.01837707 0.03892691 -0.00827500
v -0.01679386 0.03992171 -0.00827500
v -0.01547171 0.04124386 -0.00827500
v -0.01447691 0.04282707 -0.00827500
v -0.01385935 0.04459195 -0.00827500
v -0.01580000 0.04645000 -0.00827500
v -0.01595545 0.04782963 -0.00827500
v -0.01641399 0.04914008 -0.00827500
v -0.01715264 0.05031564 -0.00827500
v -0.01813436 0.05129736 -0.00827500
v -0.01930992 0.05203601 -0.00827500
v -0.02062037 0.05249455 -0.00827500
v -0.02200000 0.05265000 -0.00827500
v -0.02337963 0.05249455 -0.00827500
v -0.02469008 0.05203601 -0.00827500
v -0.02586564 0.05129736 -0.00827500
v -0.02684736 0.05031564 -0.00827500
v -0.02758601 0.04914008 -0.00827500
v -0.02804455 0.04782963 -0.00827500
v -0.02820000 0.04645000 -0.00827500
v -0.02804455 0.04507037 -0.00827500
v -0.02758601 0.04375992 -0.00827500
v -0.02684736 0.04258436 -0.00827500
v -0.02586564 0.04160265 -0.00827500
v -0.02469008 0.04086399 -0.00827500
v -0.02337963 0.04040545 -0.00827500
v -0.02200000 0.04025000 -0.00827500
v -0.02062037 0.04040545 -0.00827500
v -0.01930992 0.04086399 -0.00827500
v -0.01813436 0.04160265 -0.00827500
v -0.01715264 0.04258436 -0.00827500
v -0.01641399 0.04375992 -0.00827500
v -0.01595545 0.04507037 -0.00827500
v -0.01580000 0.04645000 -0.00667500
v -0.01595545 0.04782963 -0.00667500
v -0.01641399 0.04914008 -0.00667500
v -0.01715264 0.05031564 -0.00667500
v -0.01813436 0.05129736 -0.00667500
v -0.01930992 0.05203601 -0.00667500
v -0.02062037 0.05249455 -0.00667500
v -0.02200000 0.05265000 -0.00667500
v -0.02337963 0.05249455 -0.00667500
v -0.02469008 0.05203601 -0.00667500
v -0.02586564 0.05129736 -0.00667500
v -0.02684736 0.05031564 -0.00667500
v -0.02758601 0.04914008 -0.00667500
v -0.02804455 0.04782963 -0.00667500
v -0.02820000 0.04645000 -0.00667500
v -0.02804455 0.04507037 -0.00667500
v -0.02758601 0.04375992 -0.00667500
v -0.02684736 0.04258436 -0.00667500
v -0.02586564 0.04160265 -0.00667500
v -0.02469008 0.04086399 -0.00667500
v -0.02337963 0.04040545 -0.00667500
v -0.02200000 0.04025000 -0.00667500
v -0.02062037 0.04040545 -0.00667500
v -0.01930992 0.04086399 -0.00667500
v -0.01813436 0.04160265 -0.00667500
v -0.01715264 0.04258436 -0.00667500
v -0.01641399 0.04375992 -0.00667500
v -0.01595545 0.04507037 -0.00667500
f 597 625 626
f 597 626 598
f 598 626 627
f 598 627 599
f 599 627 628
f 599 628 600
f 600 628 629
f 600 629 601
f 601 629 630
f 601 630 602
f 602 630 631
f 602 631 603
f 603 631 632
f 603 632 604
f 604 632 633
f 604 633 605
f 605 633 634
f 605 634 606
f 606 634 635
f 606 635 607
f 607 635 636
f 607 636 608
f 608 636 637
f 608 637 609
f 609 637 638
f 609 638 610
f 610 638 639
f 610 639 611
f 611 639 640
f 611 640 612
f 612 640 641
f 612 641 613
f 613 641 642
f 613 642 614
f 614 642 643
f 614 643 615
f 615 643 644
f 615 644 616
f 616 644 645
f 616 645 617
f 617 645 646
f 617 646 618
f 618 646 647
f 618 647 619
f 619 647 648
f 619 648 620
f 620 648 649
f 620 649 621
f 621 649 650
f 621 650 622
f 622 650 651
f 622 651 623
f 623 651 652
f 623 652 624
f 624 652 625
f 624 625 597
f 625 653 654
f 625 654 626
f 626 654 655
f 626 655 627
f 627 655 656
f 627 656 628
f 628 656 657
f 628 657 629
f 629 657 658
f 629 658 630
f 630 658 659
f 630 659 631
f 631 659 660
f 631 660 632
f 632 660 661
f 632 661 633
f 633 661 662
f 633 662 634
f 634 662 663
f 634 663 635
f 635 663 664
f 635 664 636
f 636 664 665
f 636 665 637
f 637 665 666
f 637 666 638
f 638 666 667
f 638 667 639
f 639 667 668
f 639 668 640
f 640 668 669
f 640 669 641
f 641 669 670
f 641 670 642
f 642 670 671
f 642 671 643
f 643 671 672
f 643 672 644
f 644 672 673
f 644 673 645
f 645 673 674
f 645 674 646
f 646 674 675
f 646 675 647
f 647 675 676
f 647 676 648
f 648 676 677
f 648 677 649
f 649 677 678
f 649 678 650
f 650 678 679
f 650 679 651
f 651 679 680
f 651 680 652
f 652 680 653
f 652 653 625
f 653 681 682
f 653 682 654
f 654 682 683
f 654 683 655
f 655 683 684
f 655 684 656
f 656 684 685
f 656 685 657
f 657 685 686
f 657 686 658
f 658 686 687
f 658 687 659
f 659 687 688
f 659 688 660
f 660 688 689
f 660 689 661
f 661 689 690
f 661 690 662
f 662 690 691
f 662 691 663
f 663 691 692
f 663 692 664
f 664 692 693
f 664 693 665
f 665 693 694
f 665 694 666
f 666 694 695
f 666 695 667
f 667 695 696
f 667 696 668
f 668 696 697
f 668 697 669
f 669 697 698
f 669 698 670
f 670 698 699
f 670 699 671
f 671 699 700
f 671 700 672
f 672 700 701
f 672 701 673
f 673 701 702
f 673 702 674
f 674 702 703
f 674 703 675
f 675 703 704
f 675 704 676
f 676 704 705
f 676 705 677
f 677 705 706
f 677 706 678
f 678 706 707
f 678 707 679
f 679 707 708
f 679 708 680
f 680 708 681
f 680 681 653
f 681 597 598
f 681 598 682
f 682 598 599
f 682 599 683
f 683 599 600
f 683 600 684
f 684 600 601
f 684 601 685
f 685 601 602
f 685 602 686
f 686 602 603
f 686 603 687
f 687 603 604
f 687 604 688
f 688 604 605
f 688 605 689
f 689 605 606
f 689 606 690
f 690 606 607
f 690 607 691
f 691 607 608
f 691 608 692
f 692 608 609
f 692 609 693
f 693 609 610
f 693 610 694
f 694 610 611
f 694 611 695
f 695 611 612
f 695 612 696
f 696 612 613
f 696 613 697
f 697 613 614
f 697 614 698
f 698 614 615
f 698 615 699
f 699 615 616
f 699 616 700
f 700 616 617
f 700 617 701
f 701 617 618
f 701 618 702
f 702 618 619
f 702 619 703
f 703 619 620
f 703 620 704
f 704 620 621
f 704 621 705
f 705 621 622
f 705 622 706
f 706 622 623
f 706 623 707
f 707 623 624
f 707 624 708
f 708 624 597
f 708 597 681

o LensGlass_1
usemtl M_LensGlass
v -0.02200000 0.06595000 -0.00802500
v -0.01580000 0.06595000 -0.00802500
v -0.01580000 0.06595000 -0.00692500
v -0.02200000 0.06595000 -0.00692500
v -0.01595545 0.06732963 -0.00802500
v -0.01595545 0.06732963 -0.00692500
v -0.01641399 0.06864008 -0.00802500
v -0.01641399 0.06864008 -0.00692500
v -0.01715264 0.06981564 -0.00802500
v -0.01715264 0.06981564 -0.00692500
v -0.01813436 0.07079735 -0.00802500
v -0.01813436 0.07079735 -0.00692500
v -0.01930992 0.07153600 -0.00802500
v -0.01930992 0.07153600 -0.00692500
v -0.02062037 0.07199455 -0.00802500
v -0.02062037 0.07199455 -0.00692500
v -0.02200000 0.07215000 -0.00802500
v -0.02200000 0.07215000 -0.00692500
v -0.02337963 0.07199455 -0.00802500
v -0.02337963 0.07199455 -0.00692500
v -0.02469008 0.07153600 -0.00802500
v -0.02469008 0.07153600 -0.00692500
v -0.02586564 0.07079735 -0.00802500
v -0.02586564 0.07079735 -0.00692500
v -0.02684736 0.06981564 -0.00802500
v -0.02684736 0.06981564 -0.00692500
v -0.02758601 0.06864008 -0.00802500
v -0.02758601 0.06864008 -0.00692500
v -0.02804455 0.06732963 -0.00802500
v -0.02804455 0.06732963 -0.00692500
v -0.02820000 0.06595000 -0.00802500
v -0.02820000 0.06595000 -0.00692500
v -0.02804455 0.06457037 -0.00802500
v -0.02804455 0.06457037 -0.00692500
v -0.02758601 0.06325992 -0.00802500
v -0.02758601 0.06325992 -0.00692500
v -0.02684736 0.06208436 -0.00802500
v -0.02684736 0.06208436 -0.00692500
v -0.02586564 0.06110264 -0.00802500
v -0.02586564 0.06110264 -0.00692500
v -0.02469008 0.06036399 -0.00802500
v -0.02469008 0.06036399 -0.00692500
v -0.02337963 0.05990545 -0.00802500
v -0.02337963 0.05990545 -0.00692500
v -0.02200000 0.05975000 -0.00802500
v -0.02200000 0.05975000 -0.00692500
v -0.02062037 0.05990545 -0.00802500
v -0.02062037 0.05990545 -0.00692500
v -0.01930992 0.06036399 -0.00802500
v -0.01930992 0.06036399 -0.00692500
v -0.01813436 0.06110264 -0.00802500
v -0.01813436 0.06110264 -0.00692500
v -0.01715264 0.06208436 -0.00802500
v -0.01715264 0.06208436 -0.00692500
v -0.01641399 0.06325992 -0.00802500
v -0.01641399 0.06325992 -0.00692500
v -0.01595545 0.06457037 -0.00802500
v -0.01595545 0.06457037 -0.00692500
f 710 709 713
f 710 713 711
f 711 713 714
f 711 714 712
f 713 709 715
f 713 715 714
f 714 715 716
f 714 716 712
f 715 709 717
f 715 717 716
f 716 717 718
f 716 718 712
f 717 709 719
f 717 719 718
f 718 719 720
f 718 720 712
f 719 709 721
f 719 721 720
f 720 721 722
f 720 722 712
f 721 709 723
f 721 723 722
f 722 723 724
f 722 724 712
f 723 709 725
f 723 725 724
f 724 725 726
f 724 726 712
f 725 709 727
f 725 727 726
f 726 727 728
f 726 728 712
f 727 709 729
f 727 729 728
f 728 729 730
f 728 730 712
f 729 709 731
f 729 731 730
f 730 731 732
f 730 732 712
f 731 709 733
f 731 733 732
f 732 733 734
f 732 734 712
f 733 709 735
f 733 735 734
f 734 735 736
f 734 736 712
f 735 709 737
f 735 737 736
f 736 737 738
f 736 738 712
f 737 709 739
f 737 739 738
f 738 739 740
f 738 740 712
f 739 709 741
f 739 741 740
f 740 741 742
f 740 742 712
f 741 709 743
f 741 743 742
f 742 743 744
f 742 744 712
f 743 709 745
f 743 745 744
f 744 745 746
f 744 746 712
f 745 709 747
f 745 747 746
f 746 747 748
f 746 748 712
f 747 709 749
f 747 749 748
f 748 749 750
f 748 750 712
f 749 709 751
f 749 751 750
f 750 751 752
f 750 752 712
f 751 709 753
f 751 753 752
f 752 753 754
f 752 754 712
f 753 709 755
f 753 755 754
f 754 755 756
f 754 756 712
f 755 709 757
f 755 757 756
f 756 757 758
f 756 758 712
f 757 709 759
f 757 759 758
f 758 759 760
f 758 760 712
f 759 709 761
f 759 761 760
f 760 761 762
f 760 762 712
f 761 709 763
f 761 763 762
f 762 763 764
f 762 764 712
f 763 709 765
f 763 765 764
f 764 765 766
f 764 766 712
f 765 709 710
f 765 710 766
f 766 710 711
f 766 711 712

o LensRing_1
usemtl M_LensRing
v -0.01365000 0.06595000 -0.00667500
v -0.01385935 0.06780805 -0.00667500
v -0.01447691 0.06957293 -0.00667500
v -0.01547171 0.07115614 -0.00667500
v -0.01679386 0.07247829 -0.00667500
v -0.01837707 0.07347309 -0.00667500
v -0.02014195 0.07409064 -0.00667500
v -0.02200000 0.07430000 -0.00667500
v -0.02385805 0.07409064 -0.00667500
v -0.02562293 0.07347309 -0.00667500
v -0.02720614 0.07247829 -0.00667500
v -0.02852829 0.07115614 -0.00667500
v -0.02952309 0.06957293 -0.00667500
v -0.03014065 0.06780805 -0.00667500
v -0.03035000 0.06595000 -0.00667500
v -0.03014065 0.06409195 -0.00667500
v -0.02952309 0.06232707 -0.00667500
v -0.02852829 0.06074386 -0.00667500
v -0.02720614 0.05942171 -0.00667500
v -0.02562293 0.05842691 -0.00667500
v -0.02385805 0.05780935 -0.00667500
v -0.02200000 0.05760000 -0.00667500
v -0.02014195 0.05780935 -0.00667500
v -0.01837707 0.05842691 -0.00667500
v -0.01679386 0.05942171 -0.00667500
v -0.01547171 0.06074386 -0.00667500
v -0.01447691 0.06232707 -0.00667500
v -0.01385935 0.06409195 -0.00667500
v -0.01365000 0.06595000 -0.00827500
v -0.01385935 0.06780805 -0.00827500
v -0.01447691 0.06957293 -0.00827500
v -0.01547171 0.07115614 -0.00827500
v -0.01679386 0.07247829 -0.00827500
v -0.01837707 0.07347309 -0.00827500
v -0.02014195 0.07409064 -0.00827500
v -0.02200000 0.07430000 -0.00827500
v -0.02385805 0.07409064 -0.00827500
v -0.02562293 0.07347309 -0.00827500
v -0.02720614 0.07247829 -0.00827500
v -0.02852829 0.07115614 -0.00827500
v -0.02952309 0.06957293 -0.00827500
v -0.03014065 0.06780805 -0.00827500
v -0.03035000 0.06595000 -0.00827500
v -0.03014065 0.06409195 -0.00827500
v -0.02952309 0.06232707 -0.00827500
v -0.02852829 0.06074386 -0.00827500
v -0.02720614 0.05942171 -0.00827500
v -0.02562293 0.05842691 -0.00827500
v -0.02385805 0.05780935 -0.00827500
v -0.02200000 0.05760000 -0.00827500
v -0.02014195 0.05780935 -0.00827500
v -0.01837707 0.05842691 -0.00827500
v -0.01679386 0.05942171 -0.00827500
v -0.01547171 0.06074386 -0.00827500
v -0.01447691 0.06232707 -0.00827500
v -0.01385935 0.06409195 -0.00827500
v -0.01580000 0.06595000 -0.00827500
v -0.01595545 0.06732963 -0.00827500
v -0.01641399 0.06864008 -0.00827500
v -0.01715264 0.06981564 -0.00827500
v -0.01813436 0.07079735 -0.00827500
v -0.01930992 0.07153600 -0.00827500
v -0.02062037 0.07199455 -0.00827500
v -0.02200000 0.07215000 -0.00827500
v -0.02337963 0.07199455 -0.00827500
v -0.02469008 0.07153600 -0.00827500
v -0.02586564 0.07079735 -0.00827500
v -0.02684736 0.06981564 -0.00827500
v -0.02758601 0.06864008 -0.00827500
v -0.02804455 0.06732963 -0.00827500
v -0.02820000 0.06595000 -0.00827500
v -0.02804455 0.06457037 -0.00827500
v -0.02758601 0.06325992 -0.00827500
v -0.02684736 0.06208436 -0.00827500
v -0.02586564 0.06110264 -0.00827500
v -0.02469008 0.06036399 -0.00827500
v -0.02337963 0.05990545 -0.00827500
v -0.02200000 0.05975000 -0.00827500
v -0.02062037 0.05990545 -0.00827500
v -0.01930992 0.06036399 -0.00827500
v -0.01813436 0.06110264 -0.00827500
v -0.01715264 0.06208436 -0.00827500
v -0.01641399 0.06325992 -0.00827500
v -0.01595545 0.06457037 -0.00827500
v -0.01580000 0.06595000 -0.00667500
v -0.01595545 0.06732963 -0.00667500
v -0.01641399 0.06864008 -0.00667500
v -0.01715264 0.06981564 -0.00667500
v -0.01813436 0.07079735 -0.00667500
v -0.01930992 0.07153600 -0.00667500
v -0.02062037 0.07199455 -0.00667500
v -0.02200000 0.07215000 -0.00667500
v -0.02337963 0.07199455 -0.00667500
v -0.02469008 0.07153600 -0.00667500
v -0.02586564 0.07079735 -0.00667500
v -0.02684736 0.06981564 -0.00667500
v -0.02758601 0.06864008 -0.00667500
v -0.02804455 0.06732963 -0.00667500
v -0.02820000 0.06595000 -0.00667500
v -0.02804455 0.06457037 -0.00667500
v -0.02758601 0.06325992 -0.00667500
v -0.02684736 0.06208436 -0.00667500
v -0.02586564 0.06110264 -0.00667500
v -0.02469008 0.06036399 -0.00667500
v -0.02337963 0.05990545 -0.00667500
v -0.02200000 0.05975000 -0.00667500
v -0.02062037 0.05990545 -0.00667500
v -0.01930992 0.06036399 -0.00667500
v -0.01813436 0.06110264 -0.00667500
v -0.01715264 0.06208436 -0.00667500
v -0.01641399 0.06325992 -0.00667500
v -0.01595545 0.06457037 -0.00667500
f 767 795 796
f 767 796 768
f 768 796 797
f 768 797 769
f 769 797 798
f 769 798 770
f 770 798 799
f 770 799 771
f 771 799 800
f 771 800 772
f 772 800 801
f 772 801 773
f 773 801 802
f 773 802 774
f 774 802 803
f 774 803 775
f 775 803 804
f 775 804 776
f 776 804 805
f 776 805 777
f 777 805 806
f 777 806 778
f 778 806 807
f 778 807 779
f 779 807 808
f 779 808 780
f 780 808 809
f 780 809 781
f 781 809 810
f 781 810 782
f 782 810 811
f 782 811 783
f 783 811 812
f 783 812 784
f 784 812 813
f 784 813 785
f 785 813 814
f 785 814 786
f 786 814 815
f 786 815 787
f 787 815 816
f 787 816 788
f 788 816 817
f 788 817 789
f 789 817 818
f 789 818 790
f 790 818 819
f 790 819 791
f 791 819 820
f 791 820 792
f 792 820 821
f 792 821 793
f 793 821 822
f 793 822 794
f 794 822 795
f 794 795 767
f 795 823 824
f 795 824 796
f 796 824 825
f 796 825 797
f 797 825 826
f 797 826 798
f 798 826 827
f 798 827 799
f 799 827 828
f 799 828 800
f 800 828 829
f 800 829 801
f 801 829 830
f 801 830 802
f 802 830 831
f 802 831 803
f 803 831 832
f 803 832 804
f 804 832 833
f 804 833 805
f 805 833 834
f 805 834 806
f 806 834 835
f 806 835 807
f 807 835 836
f 807 836 808
f 808 836 837
f 808 837 809
f 809 837 838
f 809 838 810
f 810 838 839
f 810 839 811
f 811 839 840
f 811 840 812
f 812 840 841
f 812 841 813
f 813 841 842
f 813 842 814
f 814 842 843
f 814 843 815
f 815 843 844
f 815 844 816
f 816 844 845
f 816 845 817
f 817 845 846
f 817 846 818
f 818 846 847
f 818 847 819
f 819 847 848
f 819 848 820
f 820 848 849
f 820 849 821
f 821 849 850
f 821 850 822
f 822 850 823
f 822 823 795
f 823 851 852
f 823 852 824
f 824 852 853
f 824 853 825
f 825 853 854
f 825 854 826
f 826 854 855
f 826 855 827
f 827 855 856
f 827 856 828
f 828 856 857
f 828 857 829
f 829 857 858
f 829 858 830
f 830 858 859
f 830 859 831
f 831 859 860
f 831 860 832
f 832 860 861
f 832 861 833
f 833 861 862
f 833 862 834
f 834 862 863
f 834 863 835
f 835 863 864
f 835 864 836
f 836 864 865
f 836 865 837
f 837 865 866
f 837 866 838
f 838 866 867
f 838 867 839
f 839 867 868
f 839 868 840
f 840 868 869
f 840 869 841
f 841 869 870
f 841 870 842
f 842 870 871
f 842 871 843
f 843 871 872
f 843 872 844
f 844 872 873
f 844 873 845
f 845 873 874
f 845 874 846
f 846 874 875
f 846 875 847
f 847 875 876
f 847 876 848
f 848 876 877
f 848 877 849
f 849 877 878
f 849 878 850
f 850 878 851
f 850 851 823
f 851 767 768
f 851 768 852
f 852 768 769
f 852 769 853
f 853 769 770
f 853 770 854
f 854 770 771
f 854 771 855
f 855 771 772
f 855 772 856
f 856 772 773
f 856 773 857
f 857 773 774
f 857 774 858
f 858 774 775
f 858 775 859
f 859 775 776
f 859 776 860
f 860 776 777
f 860 777 861
f 861 777 778
f 861 778 862
f 862 778 779
f 862 779 863
f 863 779 780
f 863 780 864
f 864 780 781
f 864 781 865
f 865 781 782
f 865 782 866
f 866 782 783
f 866 783 867
f 867 783 784
f 867 784 868
f 868 784 785
f 868 785 869
f 869 785 786
f 869 786 870
f 870 786 787
f 870 787 871
f 871 787 788
f 871 788 872
f 872 788 789
f 872 789 873
f 873 789 790
f 873 790 874
f 874 790 791
f 874 791 875
f 875 791 792
f 875 792 876
f 876 792 793
f 876 793 877
f 877 793 794
f 877 794 878
f 878 794 767
f 878 767 851

o CameraPlateau
usemtl M_Alu_Dark
v 0.03700000 0.06620000 -0.00417500
v 0.03679825 0.06824845 -0.00417500
v 0.03620074 0.07021818 -0.00417500
v 0.03523043 0.07203349 -0.00417500
v 0.03392462 0.07362462 -0.00417500
v 0.03233349 0.07493043 -0.00417500
v 0.03051818 0.07590073 -0.00417500
v 0.02854845 0.07649825 -0.00417500
v 0.02650000 0.07670000 -0.00417500
v -0.02650000 0.07670000 -0.00417500
v -0.02854845 0.07649825 -0.00417500
v -0.03051818 0.07590073 -0.00417500
v -0.03233349 0.07493043 -0.00417500
v -0.03392462 0.07362462 -0.00417500
v -0.03523043 0.07203349 -0.00417500
v -0.03620074 0.07021818 -0.00417500
v -0.03679825 0.06824845 -0.00417500
v -0.03700000 0.06620000 -0.00417500
v -0.03700000 0.04620000 -0.00417500
v -0.03679825 0.04415155 -0.00417500
v -0.03620074 0.04218182 -0.00417500
v -0.03523043 0.04036651 -0.00417500
v -0.03392462 0.03877538 -0.00417500
v -0.03233349 0.03746957 -0.00417500
v -0.03051818 0.03649927 -0.00417500
v -0.02854845 0.03590176 -0.00417500
v -0.02650000 0.03570000 -0.00417500
v 0.02650000 0.03570000 -0.00417500
v 0.02854845 0.03590176 -0.00417500
v 0.03051818 0.03649927 -0.00417500
v 0.03233349 0.03746957 -0.00417500
v 0.03392462 0.03877538 -0.00417500
v 0.03523043 0.04036651 -0.00417500
v 0.03620074 0.04218182 -0.00417500
v 0.03679825 0.04415155 -0.00417500
v 0.03700000 0.04620000 -0.00417500
v 0.03750000 0.06620000 -0.00467500
v 0.03728864 0.06834599 -0.00467500
v 0.03666268 0.07040952 -0.00467500
v 0.03564617 0.07231127 -0.00467500
v 0.03427817 0.07397818 -0.00467500
v 0.03261127 0.07534616 -0.00467500
v 0.03070952 0.07636268 -0.00467500
v 0.02864599 0.07698864 -0.00467500
v 0.02650000 0.07720000 -0.00467500
v -0.02650000 0.07720000 -0.00467500
v -0.02864599 0.07698864 -0.00467500
v -0.03070952 0.07636268 -0.00467500
v -0.03261127 0.07534616 -0.00467500
v -0.03427817 0.07397818 -0.00467500
v -0.03564617 0.07231127 -0.00467500
v -0.03666268 0.07040952 -0.00467500
v -0.03728864 0.06834599 -0.00467500
v -0.03750000 0.06620000 -0.00467500
v -0.03750000 0.04620000 -0.00467500
v -0.03728864 0.04405401 -0.00467500
v -0.03666268 0.04199048 -0.00467500
v -0.03564617 0.04008873 -0.00467500
v -0.03427817 0.03842182 -0.00467500
v -0.03261127 0.03705383 -0.00467500
v -0.03070952 0.03603733 -0.00467500
v -0.02864599 0.03541136 -0.00467500
v -0.02650000 0.03520000 -0.00467500
v 0.02650000 0.03520000 -0.00467500
v 0.02864599 0.03541136 -0.00467500
v 0.03070952 0.03603733 -0.00467500
v 0.03261127 0.03705383 -0.00467500
v 0.03427817 0.03842182 -0.00467500
v 0.03564617 0.04008873 -0.00467500
v 0.03666268 0.04199048 -0.00467500
v 0.03728864 0.04405401 -0.00467500
v 0.03750000 0.04620000 -0.00467500
v 0.03750000 0.06620000 -0.00617500
v 0.03728864 0.06834599 -0.00617500
v 0.03666268 0.07040952 -0.00617500
v 0.03564617 0.07231127 -0.00617500
v 0.03427817 0.07397818 -0.00617500
v 0.03261127 0.07534616 -0.00617500
v 0.03070952 0.07636268 -0.00617500
v 0.02864599 0.07698864 -0.00617500
v 0.02650000 0.07720000 -0.00617500
v -0.02650000 0.07720000 -0.00617500
v -0.02864599 0.07698864 -0.00617500
v -0.03070952 0.07636268 -0.00617500
v -0.03261127 0.07534616 -0.00617500
v -0.03427817 0.07397818 -0.00617500
v -0.03564617 0.07231127 -0.00617500
v -0.03666268 0.07040952 -0.00617500
v -0.03728864 0.06834599 -0.00617500
v -0.03750000 0.06620000 -0.00617500
v -0.03750000 0.04620000 -0.00617500
v -0.03728864 0.04405401 -0.00617500
v -0.03666268 0.04199048 -0.00617500
v -0.03564617 0.04008873 -0.00617500
v -0.03427817 0.03842182 -0.00617500
v -0.03261127 0.03705383 -0.00617500
v -0.03070952 0.03603733 -0.00617500
v -0.02864599 0.03541136 -0.00617500
v -0.02650000 0.03520000 -0.00617500
v 0.02650000 0.03520000 -0.00617500
v 0.02864599 0.03541136 -0.00617500
v 0.03070952 0.03603733 -0.00617500
v 0.03261127 0.03705383 -0.00617500
v 0.03427817 0.03842182 -0.00617500
v 0.03564617 0.04008873 -0.00617500
v 0.03666268 0.04199048 -0.00617500
v 0.03728864 0.04405401 -0.00617500
v 0.03750000 0.04620000 -0.00617500
v 0.03700000 0.06620000 -0.00667500
v 0.03679825 0.06824845 -0.00667500
v 0.03620074 0.07021818 -0.00667500
v 0.03523043 0.07203349 -0.00667500
v 0.03392462 0.07362462 -0.00667500
v 0.03233349 0.07493043 -0.00667500
v 0.03051818 0.07590073 -0.00667500
v 0.02854845 0.07649825 -0.00667500
v 0.02650000 0.07670000 -0.00667500
v -0.02650000 0.07670000 -0.00667500
v -0.02854845 0.07649825 -0.00667500
v -0.03051818 0.07590073 -0.00667500
v -0.03233349 0.07493043 -0.00667500
v -0.03392462 0.07362462 -0.00667500
v -0.03523043 0.07203349 -0.00667500
v -0.03620074 0.07021818 -0.00667500
v -0.03679825 0.06824845 -0.00667500
v -0.03700000 0.06620000 -0.00667500
v -0.03700000 0.04620000 -0.00667500
v -0.03679825 0.04415155 -0.00667500
v -0.03620074 0.04218182 -0.00667500
v -0.03523043 0.04036651 -0.00667500
v -0.03392462 0.03877538 -0.00667500
v -0.03233349 0.03746957 -0.00667500
v -0.03051818 0.03649927 -0.00667500
v -0.02854845 0.03590176 -0.00667500
v -0.02650000 0.03570000 -0.00667500
v 0.02650000 0.03570000 -0.00667500
v 0.02854845 0.03590176 -0.00667500
v 0.03051818 0.03649927 -0.00667500
v 0.03233349 0.03746957 -0.00667500
v 0.03392462 0.03877538 -0.00667500
v 0.03523043 0.04036651 -0.00667500
v 0.03620074 0.04218182 -0.00667500
v 0.03679825 0.04415155 -0.00667500
v 0.03700000 0.04620000 -0.00667500
v 0.00000000 0.05620000 -0.00417500
v 0.00000000 0.05620000 -0.00667500
f 879 915 916
f 879 916 880
f 880 916 917
f 880 917 881
f 881 917 918
f 881 918 882
f 882 918 919
f 882 919 883
f 883 919 920
f 883 920 884
f 884 920 921
f 884 921 885
f 885 921 922
f 885 922 886
f 886 922 923
f 886 923 887
f 887 923 924
f 887 924 888
f 888 924 925
f 888 925 889
f 889 925 926
f 889 926 890
f 890 926 927
f 890 927 891
f 891 927 928
f 891 928 892
f 892 928 929
f 892 929 893
f 893 929 930
f 893 930 894
f 894 930 931
f 894 931 895
f 895 931 932
f 895 932 896
f 896 932 933
f 896 933 897
f 897 933 934
f 897 934 898
f 898 934 935
f 898 935 899
f 899 935 936
f 899 936 900
f 900 936 937
f 900 937 901
f 901 937 938
f 901 938 902
f 902 938 939
f 902 939 903
f 903 939 940
f 903 940 904
f 904 940 941
f 904 941 905
f 905 941 942
f 905 942 906
f 906 942 943
f 906 943 907
f 907 943 944
f 907 944 908
f 908 944 945
f 908 945 909
f 909 945 946
f 909 946 910
f 910 946 947
f 910 947 911
f 911 947 948
f 911 948 912
f 912 948 949
f 912 949 913
f 913 949 950
f 913 950 914
f 914 950 915
f 914 915 879
f 915 951 952
f 915 952 916
f 916 952 953
f 916 953 917
f 917 953 954
f 917 954 918
f 918 954 955
f 918 955 919
f 919 955 956
f 919 956 920
f 920 956 957
f 920 957 921
f 921 957 958
f 921 958 922
f 922 958 959
f 922 959 923
f 923 959 960
f 923 960 924
f 924 960 961
f 924 961 925
f 925 961 962
f 925 962 926
f 926 962 963
f 926 963 927
f 927 963 964
f 927 964 928
f 928 964 965
f 928 965 929
f 929 965 966
f 929 966 930
f 930 966 967
f 930 967 931
f 931 967 968
f 931 968 932
f 932 968 969
f 932 969 933
f 933 969 970
f 933 970 934
f 934 970 971
f 934 971 935
f 935 971 972
f 935 972 936
f 936 972 973
f 936 973 937
f 937 973 974
f 937 974 938
f 938 974 975
f 938 975 939
f 939 975 976
f 939 976 940
f 940 976 977
f 940 977 941
f 941 977 978
f 941 978 942
f 942 978 979
f 942 979 943
f 943 979 980
f 943 980 944
f 944 980 981
f 944 981 945
f 945 981 982
f 945 982 946
f 946 982 983
f 946 983 947
f 947 983 984
f 947 984 948
f 948 984 985
f 948 985 949
f 949 985 986
f 949 986 950
f 950 986 951
f 950 951 915
f 951 987 988
f 951 988 952
f 952 988 989
f 952 989 953
f 953 989 990
f 953 990 954
f 954 990 991
f 954 991 955
f 955 991 992
f 955 992 956
f 956 992 993
f 956 993 957
f 957 993 994
f 957 994 958
f 958 994 995
f 958 995 959
f 959 995 996
f 959 996 960
f 960 996 997
f 960 997 961
f 961 997 998
f 961 998 962
f 962 998 999
f 962 999 963
f 963 999 1000
f 963 1000 964
f 964 1000 1001
f 964 1001 965
f 965 1001 1002
f 965 1002 966
f 966 1002 1003
f 966 1003 967
f 967 1003 1004
f 967 1004 968
f 968 1004 1005
f 968 1005 969
f 969 1005 1006
f 969 1006 970
f 970 1006 1007
f 970 1007 971
f 971 1007 1008
f 971 1008 972
f 972 1008 1009
f 972 1009 973
f 973 1009 1010
f 973 1010 974
f 974 1010 1011
f 974 1011 975
f 975 1011 1012
f 975 1012 976
f 976 1012 1013
f 976 1013 977
f 977 1013 1014
f 977 1014 978
f 978 1014 1015
f 978 1015 979
f 979 1015 1016
f 979 1016 980
f 980 1016 1017
f 980 1017 981
f 981 1017 1018
f 981 1018 982
f 982 1018 1019
f 982 1019 983
f 983 1019 1020
f 983 1020 984
f 984 1020 1021
f 984 1021 985
f 985 1021 1022
f 985 1022 986
f 986 1022 987
f 986 987 951
f 1023 879 880
f 1023 880 881
f 1023 881 882
f 1023 882 883
f 1023 883 884
f 1023 884 885
f 1023 885 886
f 1023 886 887
f 1023 887 888
f 1023 888 889
f 1023 889 890
f 1023 890 891
f 1023 891 892
f 1023 892 893
f 1023 893 894
f 1023 894 895
f 1023 895 896
f 1023 896 897
f 1023 897 898
f 1023 898 899
f 1023 899 900
f 1023 900 901
f 1023 901 902
f 1023 902 903
f 1023 903 904
f 1023 904 905
f 1023 905 906
f 1023 906 907
f 1023 907 908
f 1023 908 909
f 1023 909 910
f 1023 910 911
f 1023 911 912
f 1023 912 913
f 1023 913 914
f 1023 914 879
f 1024 988 987
f 1024 989 988
f 1024 990 989
f 1024 991 990
f 1024 992 991
f 1024 993 992
f 1024 994 993
f 1024 995 994
f 1024 996 995
f 1024 997 996
f 1024 998 997
f 1024 999 998
f 1024 1000 999
f 1024 1001 1000
f 1024 1002 1001
f 1024 1003 1002
f 1024 1004 1003
f 1024 1005 1004
f 1024 1006 1005
f 1024 1007 1006
f 1024 1008 1007
f 1024 1009 1008
f 1024 1010 1009
f 1024 1011 1010
f 1024 1012 1011
f 1024 1013 1012
f 1024 1014 1013
f 1024 1015 1014
f 1024 1016 1015
f 1024 1017 1016
f 1024 1018 1017
f 1024 1019 1018
f 1024 1020 1019
f 1024 1021 1020
f 1024 1022 1021
f 1024 987 1022

o FrontCamera
usemtl M_LensGlass
v 0.00605000 0.07190000 0.00461500
v 0.00735000 0.07190000 0.00461500
v 0.00735000 0.07190000 0.00465500
v 0.00605000 0.07190000 0.00465500
v 0.00731741 0.07218928 0.00461500
v 0.00731741 0.07218928 0.00465500
v 0.00722126 0.07246405 0.00461500
v 0.00722126 0.07246405 0.00465500
v 0.00706638 0.07271054 0.00461500
v 0.00706638 0.07271054 0.00465500
v 0.00686054 0.07291638 0.00461500
v 0.00686054 0.07291638 0.00465500
v 0.00661405 0.07307126 0.00461500
v 0.00661405 0.07307126 0.00465500
v 0.00633928 0.07316741 0.00461500
v 0.00633928 0.07316741 0.00465500
v 0.00605000 0.07320000 0.00461500
v 0.00605000 0.07320000 0.00465500
v 0.00576072 0.07316741 0.00461500
v 0.00576072 0.07316741 0.00465500
v 0.00548595 0.07307126 0.00461500
v 0.00548595 0.07307126 0.00465500
v 0.00523946 0.07291638 0.00461500
v 0.00523946 0.07291638 0.00465500
v 0.00503362 0.07271054 0.00461500
v 0.00503362 0.07271054 0.00465500
v 0.00487874 0.07246405 0.00461500
v 0.00487874 0.07246405 0.00465500
v 0.00478259 0.07218928 0.00461500
v 0.00478259 0.07218928 0.00465500
v 0.00475000 0.07190000 0.00461500
v 0.00475000 0.07190000 0.00465500
v 0.00478259 0.07161073 0.00461500
v 0.00478259 0.07161073 0.00465500
v 0.00487874 0.07133595 0.00461500
v 0.00487874 0.07133595 0.00465500
v 0.00503362 0.07108946 0.00461500
v 0.00503362 0.07108946 0.00465500
v 0.00523946 0.07088362 0.00461500
v 0.00523946 0.07088362 0.00465500
v 0.00548595 0.07072874 0.00461500
v 0.00548595 0.07072874 0.00465500
v 0.00576072 0.07063259 0.00461500
v 0.00576072 0.07063259 0.00465500
v 0.00605000 0.07060000 0.00461500
v 0.00605000 0.07060000 0.00465500
v 0.00633928 0.07063259 0.00461500
v 0.00633928 0.07063259 0.00465500
v 0.00661405 0.07072874 0.00461500
v 0.00661405 0.07072874 0.00465500
v 0.00686054 0.07088362 0.00461500
v 0.00686054 0.07088362 0.00465500
v 0.00706638 0.07108946 0.00461500
v 0.00706638 0.07108946 0.00465500
v 0.00722126 0.07133595 0.00461500
v 0.00722126 0.07133595 0.00465500
v 0.00731741 0.07161073 0.00461500
v 0.00731741 0.07161073 0.00465500
f 1026 1025 1029
f 1027 1030 1028
f 1029 1025 1031
f 1030 1032 1028
f 1031 1025 1033
f 1032 1034 1028
f 1033 1025 1035
f 1034 1036 1028
f 1035 1025 1037
f 1036 1038 1028
f 1037 1025 1039
f 1038 1040 1028
f 1039 1025 1041
f 1040 1042 1028
f 1041 1025 1043
f 1042 1044 1028
f 1043 1025 1045
f 1044 1046 1028
f 1045 1025 1047
f 1046 1048 1028
f 1047 1025 1049
f 1048 1050 1028
f 1049 1025 1051
f 1050 1052 1028
f 1051 1025 1053
f 1052 1054 1028
f 1053 1025 1055
f 1054 1056 1028
f 1055 1025 1057
f 1056 1058 1028
f 1057 1025 1059
f 1058 1060 1028
f 1059 1025 1061
f 1060 1062 1028
f 1061 1025 1063
f 1062 1064 1028
f 1063 1025 1065
f 1064 1066 1028
f 1065 1025 1067
f 1066 1068 1028
f 1067 1025 1069
f 1068 1070 1028
f 1069 1025 1071
f 1070 1072 1028
f 1071 1025 1073
f 1072 1074 1028
f 1073 1025 1075
f 1074 1076 1028
f 1075 1025 1077
f 1076 1078 1028
f 1077 1025 1079
f 1078 1080 1028
f 1079 1025 1081
f 1080 1082 1028
f 1081 1025 1026
f 1082 1027 1028

o DynamicIsland
usemtl M_DynamicIsland
v 0.01025000 0.07190000 0.00457500
v 0.01018659 0.07254380 0.00457500
v 0.00999880 0.07316285 0.00457500
v 0.00969385 0.07373338 0.00457500
v 0.00928345 0.07423345 0.00457500
v 0.00878338 0.07464385 0.00457500
v 0.00821286 0.07494880 0.00457500
v 0.00759380 0.07513659 0.00457500
v 0.00695000 0.07520000 0.00457500
v -0.00695000 0.07520000 0.00457500
v -0.00759380 0.07513659 0.00457500
v -0.00821286 0.07494880 0.00457500
v -0.00878338 0.07464385 0.00457500
v -0.00928345 0.07423345 0.00457500
v -0.00969385 0.07373338 0.00457500
v -0.00999880 0.07316285 0.00457500
v -0.01018659 0.07254380 0.00457500
v -0.01025000 0.07190000 0.00457500
v -0.01025000 0.07190000 0.00457500
v -0.01018659 0.07125621 0.00457500
v -0.00999880 0.07063714 0.00457500
v -0.00969385 0.07006662 0.00457500
v -0.00928345 0.06956655 0.00457500
v -0.00878338 0.06915615 0.00457500
v -0.00821286 0.06885120 0.00457500
v -0.00759380 0.06866341 0.00457500
v -0.00695000 0.06860000 0.00457500
v 0.00695000 0.06860000 0.00457500
v 0.00759380 0.06866341 0.00457500
v 0.00821286 0.06885120 0.00457500
v 0.00878338 0.06915615 0.00457500
v 0.00928345 0.06956655 0.00457500
v 0.00969385 0.07006662 0.00457500
v 0.00999880 0.07063714 0.00457500
v 0.01018659 0.07125621 0.00457500
v 0.01025000 0.07190000 0.00457500
v 0.00000000 0.07190000 0.00457500
vt 1.00000000 0.50000000
vt 0.99690688 0.59754515
vt 0.98774648 0.69134176
vt 0.97287071 0.77778512
vt 0.95285136 0.85355341
vt 0.92845762 0.91573483
vt 0.90062708 0.96193975
vt 0.87042916 0.99039263
vt 0.83902436 1.00000000
vt 0.16097561 1.00000000
vt 0.12957083 0.99039263
vt 0.09937291 0.96193975
vt 0.07154235 0.91573483
vt 0.04714866 0.85355341
vt 0.02712928 0.77778512
vt 0.01225354 0.69134176
vt 0.00309310 0.59754515
vt 0.00000000 0.50000000
vt 0.00000000 0.50000000
vt 0.00309310 0.40245485
vt 0.01225354 0.30865830
vt 0.02712928 0.22221488
vt 0.04714866 0.14644659
vt 0.07154235 0.08426517
vt 0.09937291 0.03806025
vt 0.12957083 0.00960737
vt 0.16097561 0.00000000
vt 0.83902436 0.00000000
vt 0.87042916 0.00960737
vt 0.90062708 0.03806025
vt 0.92845762 0.08426517
vt 0.95285136 0.14644659
vt 0.97287071 0.22221488
vt 0.98774648 0.30865830
vt 0.99690688 0.40245485
vt 1.00000000 0.50000000
vt 0.50000000 0.50000000
f 1119/1119 1083/1083 1084/1084
f 1119/1119 1084/1084 1085/1085
f 1119/1119 1085/1085 1086/1086
f 1119/1119 1086/1086 1087/1087
f 1119/1119 1087/1087 1088/1088
f 1119/1119 1088/1088 1089/1089
f 1119/1119 1089/1089 1090/1090
f 1119/1119 1090/1090 1091/1091
f 1119/1119 1091/1091 1092/1092
f 1119/1119 1092/1092 1093/1093
f 1119/1119 1093/1093 1094/1094
f 1119/1119 1094/1094 1095/1095
f 1119/1119 1095/1095 1096/1096
f 1119/1119 1096/1096 1097/1097
f 1119/1119 1097/1097 1098/1098
f 1119/1119 1098/1098 1099/1099
f 1119/1119 1099/1099 1100/1100
f 1119/1119 1100/1100 1101/1101
f 1119/1119 1101/1101 1102/1102
f 1119/1119 1102/1102 1103/1103
f 1119/1119 1103/1103 1104/1104
f 1119/1119 1104/1104 1105/1105
f 1119/1119 1105/1105 1106/1106
f 1119/1119 1106/1106 1107/1107
f 1119/1119 1107/1107 1108/1108
f 1119/1119 1108/1108 1109/1109
f 1119/1119 1109/1109 1110/1110
f 1119/1119 1110/1110 1111/1111
f 1119/1119 1111/1111 1112/1112
f 1119/1119 1112/1112 1113/1113
f 1119/1119 1113/1113 1114/1114
f 1119/1119 1114/1114 1115/1115
f 1119/1119 1115/1115 1116/1116
f 1119/1119 1116/1116 1117/1117
f 1119/1119 1117/1117 1118/1118
f 1119/1119 1118/1118 1083/1083

o Screen_UI_Anchor
usemtl M_Screen
v 0.03710000 0.07070000 0.00449500
v 0.03692130 0.07251434 0.00449500
v 0.03639208 0.07425895 0.00449500
v 0.03553267 0.07586680 0.00449500
v 0.03437609 0.07727610 0.00449500
v 0.03296680 0.07843266 0.00449500
v 0.03135896 0.07929208 0.00449500
v 0.02961434 0.07982130 0.00449500
v 0.02780000 0.08000000 0.00449500
v -0.02780000 0.08000000 0.00449500
v -0.02961434 0.07982130 0.00449500
v -0.03135896 0.07929208 0.00449500
v -0.03296680 0.07843266 0.00449500
v -0.03437609 0.07727610 0.00449500
v -0.03553267 0.07586680 0.00449500
v -0.03639208 0.07425895 0.00449500
v -0.03692130 0.07251434 0.00449500
v -0.03710000 0.07070000 0.00449500
v -0.03710000 -0.07070000 0.00449500
v -0.03692130 -0.07251434 0.00449500
v -0.03639208 -0.07425895 0.00449500
v -0.03553267 -0.07586680 0.00449500
v -0.03437609 -0.07727610 0.00449500
v -0.03296680 -0.07843266 0.00449500
v -0.03135896 -0.07929208 0.00449500
v -0.02961434 -0.07982130 0.00449500
v -0.02780000 -0.08000000 0.00449500
v 0.02780000 -0.08000000 0.00449500
v 0.02961434 -0.07982130 0.00449500
v 0.03135896 -0.07929208 0.00449500
v 0.03296680 -0.07843266 0.00449500
v 0.03437609 -0.07727610 0.00449500
v 0.03553267 -0.07586680 0.00449500
v 0.03639208 -0.07425895 0.00449500
v 0.03692130 -0.07251434 0.00449500
v 0.03710000 -0.07070000 0.00449500
v 0.00000000 0.00000000 0.00449500
vt 1.00000000 0.94187498
vt 0.99759167 0.95321465
vt 0.99045932 0.96411848
vt 0.97887695 0.97416753
vt 0.96328968 0.98297560
vt 0.94429654 0.99020416
vt 0.92262745 0.99557549
vt 0.89911509 0.99888313
vt 0.87466305 1.00000000
vt 0.12533693 1.00000000
vt 0.10088491 0.99888313
vt 0.07737256 0.99557549
vt 0.05570346 0.99020416
vt 0.03671034 0.98297560
vt 0.02112308 0.97416753
vt 0.00954071 0.96411848
vt 0.00240831 0.95321465
vt 0.00000000 0.94187498
vt 0.00000000 0.05812502
vt 0.00240831 0.04678535
vt 0.00954071 0.03588152
vt 0.02112308 0.02583247
vt 0.03671034 0.01702440
vt 0.05570346 0.00979584
vt 0.07737256 0.00442451
vt 0.10088491 0.00111687
vt 0.12533693 0.00000000
vt 0.87466305 0.00000000
vt 0.89911509 0.00111687
vt 0.92262745 0.00442451
vt 0.94429654 0.00979584
vt 0.96328968 0.01702440
vt 0.97887695 0.02583247
vt 0.99045932 0.03588152
vt 0.99759167 0.04678535
vt 1.00000000 0.05812502
vt 0.50000000 0.50000000
f 1156/1156 1120/1120 1121/1121
f 1156/1156 1121/1121 1122/1122
f 1156/1156 1122/1122 1123/1123
f 1156/1156 1123/1123 1124/1124
f 1156/1156 1124/1124 1125/1125
f 1156/1156 1125/1125 1126/1126
f 1156/1156 1126/1126 1127/1127
f 1156/1156 1127/1127 1128/1128
f 1156/1156 1128/1128 1129/1129
f 1156/1156 1129/1129 1130/1130
f 1156/1156 1130/1130 1131/1131
f 1156/1156 1131/1131 1132/1132
f 1156/1156 1132/1132 1133/1133
f 1156/1156 1133/1133 1134/1134
f 1156/1156 1134/1134 1135/1135
f 1156/1156 1135/1135 1136/1136
f 1156/1156 1136/1136 1137/1137
f 1156/1156 1137/1137 1138/1138
f 1156/1156 1138/1138 1139/1139
f 1156/1156 1139/1139 1140/1140
f 1156/1156 1140/1140 1141/1141
f 1156/1156 1141/1141 1142/1142
f 1156/1156 1142/1142 1143/1143
f 1156/1156 1143/1143 1144/1144
f 1156/1156 1144/1144 1145/1145
f 1156/1156 1145/1145 1146/1146
f 1156/1156 1146/1146 1147/1147
f 1156/1156 1147/1147 1148/1148
f 1156/1156 1148/1148 1149/1149
f 1156/1156 1149/1149 1150/1150
f 1156/1156 1150/1150 1151/1151
f 1156/1156 1151/1151 1152/1152
f 1156/1156 1152/1152 1153/1153
f 1156/1156 1153/1153 1154/1154
f 1156/1156 1154/1154 1155/1155
f 1156/1156 1155/1155 1120/1120

o Body
usemtl M_Alu_CosmicOrange
v 0.03800000 0.07070000 0.00437500
v 0.03780401 0.07268992 0.00437500
v 0.03722357 0.07460337 0.00437500
v 0.03628099 0.07636682 0.00437500
v 0.03501249 0.07791249 0.00437500
v 0.03346682 0.07918099 0.00437500
v 0.03170337 0.08012357 0.00437500
v 0.02978992 0.08070401 0.00437500
v 0.02780000 0.08090000 0.00437500
v -0.02780000 0.08090000 0.00437500
v -0.02978992 0.08070401 0.00437500
v -0.03170337 0.08012357 0.00437500
v -0.03346682 0.07918099 0.00437500
v -0.03501249 0.07791249 0.00437500
v -0.03628099 0.07636682 0.00437500
v -0.03722357 0.07460337 0.00437500
v -0.03780401 0.07268992 0.00437500
v -0.03800000 0.07070000 0.00437500
v -0.03800000 -0.07070000 0.00437500
v -0.03780401 -0.07268992 0.00437500
v -0.03722357 -0.07460337 0.00437500
v -0.03628099 -0.07636682 0.00437500
v -0.03501249 -0.07791249 0.00437500
v -0.03346682 -0.07918099 0.00437500
v -0.03170337 -0.08012357 0.00437500
v -0.02978992 -0.08070401 0.00437500
v -0.02780000 -0.08090000 0.00437500
v 0.02780000 -0.08090000 0.00437500
v 0.02978992 -0.08070401 0.00437500
v 0.03170337 -0.08012357 0.00437500
v 0.03346682 -0.07918099 0.00437500
v 0.03501249 -0.07791249 0.00437500
v 0.03628099 -0.07636682 0.00437500
v 0.03722357 -0.07460337 0.00437500
v 0.03780401 -0.07268992 0.00437500
v 0.03800000 -0.07070000 0.00437500
v 0.03880000 0.07070000 0.00357500
v 0.03858864 0.07284600 0.00357500
v 0.03796268 0.07490952 0.00357500
v 0.03694617 0.07681127 0.00357500
v 0.03557818 0.07847817 0.00357500
v 0.03391127 0.07984617 0.00357500
v 0.03200952 0.08086267 0.00357500
v 0.02994599 0.08148864 0.00357500
v 0.02780000 0.08170000 0.00357500
v -0.02780000 0.08170000 0.00357500
v -0.02994599 0.08148864 0.00357500
v -0.03200952 0.08086267 0.00357500
v -0.03391127 0.07984617 0.00357500
v -0.03557818 0.07847817 0.00357500
v -0.03694617 0.07681127 0.00357500
v -0.03796268 0.07490952 0.00357500
v -0.03858864 0.07284600 0.00357500
v -0.03880000 0.07070000 0.00357500
v -0.03880000 -0.07070000 0.00357500
v -0.03858864 -0.07284600 0.00357500
v -0.03796268 -0.07490952 0.00357500
v -0.03694617 -0.07681127 0.00357500
v -0.03557818 -0.07847817 0.00357500
v -0.03391127 -0.07984617 0.00357500
v -0.03200952 -0.08086267 0.00357500
v -0.02994599 -0.08148864 0.00357500
v -0.02780000 -0.08170000 0.00357500
v 0.02780000 -0.08170000 0.00357500
v 0.02994599 -0.08148864 0.00357500
v 0.03200952 -0.08086267 0.00357500
v 0.03391127 -0.07984617 0.00357500
v 0.03557818 -0.07847817 0.00357500
v 0.03694617 -0.07681127 0.00357500
v 0.03796268 -0.07490952 0.00357500
v 0.03858864 -0.07284600 0.00357500
v 0.03880000 -0.07070000 0.00357500
v 0.03880000 0.07070000 -0.00357500
v 0.03858864 0.07284600 -0.00357500
v 0.03796268 0.07490952 -0.00357500
v 0.03694617 0.07681127 -0.00357500
v 0.03557818 0.07847817 -0.00357500
v 0.03391127 0.07984617 -0.00357500
v 0.03200952 0.08086267 -0.00357500
v 0.02994599 0.08148864 -0.00357500
v 0.02780000 0.08170000 -0.00357500
v -0.02780000 0.08170000 -0.00357500
v -0.02994599 0.08148864 -0.00357500
v -0.03200952 0.08086267 -0.00357500
v -0.03391127 0.07984617 -0.00357500
v -0.03557818 0.07847817 -0.00357500
v -0.03694617 0.07681127 -0.00357500
v -0.03796268 0.07490952 -0.00357500
v -0.03858864 0.07284600 -0.00357500
v -0.03880000 0.07070000 -0.00357500
v -0.03880000 -0.07070000 -0.00357500
v -0.03858864 -0.07284600 -0.00357500
v -0.03796268 -0.07490952 -0.00357500
v -0.03694617 -0.07681127 -0.00357500
v -0.03557818 -0.07847817 -0.00357500
v -0.03391127 -0.07984617 -0.00357500
v -0.03200952 -0.08086267 -0.00357500
v -0.02994599 -0.08148864 -0.00357500
v -0.02780000 -0.08170000 -0.00357500
v 0.02780000 -0.08170000 -0.00357500
v 0.02994599 -0.08148864 -0.00357500
v 0.03200952 -0.08086267 -0.00357500
v 0.03391127 -0.07984617 -0.00357500
v 0.03557818 -0.07847817 -0.00357500
v 0.03694617 -0.07681127 -0.00357500
v 0.03796268 -0.07490952 -0.00357500
v 0.03858864 -0.07284600 -0.00357500
v 0.03880000 -0.07070000 -0.00357500
v 0.03800000 0.07070000 -0.00437500
v 0.03780401 0.07268992 -0.00437500
v 0.03722357 0.07460337 -0.00437500
v 0.03628099 0.07636682 -0.00437500
v 0.03501249 0.07791249 -0.00437500
v 0.03346682 0.07918099 -0.00437500
v 0.03170337 0.08012357 -0.00437500
v 0.02978992 0.08070401 -0.00437500
v 0.02780000 0.08090000 -0.00437500
v -0.02780000 0.08090000 -0.00437500
v -0.02978992 0.08070401 -0.00437500
v -0.03170337 0.08012357 -0.00437500
v -0.03346682 0.07918099 -0.00437500
v -0.03501249 0.07791249 -0.00437500
v -0.03628099 0.07636682 -0.00437500
v -0.03722357 0.07460337 -0.00437500
v -0.03780401 0.07268992 -0.00437500
v -0.03800000 0.07070000 -0.00437500
v -0.03800000 -0.07070000 -0.00437500
v -0.03780401 -0.07268992 -0.00437500
v -0.03722357 -0.07460337 -0.00437500
v -0.03628099 -0.07636682 -0.00437500
v -0.03501249 -0.07791249 -0.00437500
v -0.03346682 -0.07918099 -0.00437500
v -0.03170337 -0.08012357 -0.00437500
v -0.02978992 -0.08070401 -0.00437500
v -0.02780000 -0.08090000 -0.00437500
v 0.02780000 -0.08090000 -0.00437500
v 0.02978992 -0.08070401 -0.00437500
v 0.03170337 -0.08012357 -0.00437500
v 0.03346682 -0.07918099 -0.00437500
v 0.03501249 -0.07791249 -0.00437500
v 0.03628099 -0.07636682 -0.00437500
v 0.03722357 -0.07460337 -0.00437500
v 0.03780401 -0.07268992 -0.00437500
v 0.03800000 -0.07070000 -0.00437500
v 0.00000000 0.00000000 0.00437500
v 0.00000000 0.00000000 -0.00437500
f 1157 1193 1194
f 1157 1194 1158
f 1158 1194 1195
f 1158 1195 1159
f 1159 1195 1196
f 1159 1196 1160
f 1160 1196 1197
f 1160 1197 1161
f 1161 1197 1198
f 1161 1198 1162
f 1162 1198 1199
f 1162 1199 1163
f 1163 1199 1200
f 1163 1200 1164
f 1164 1200 1201
f 1164 1201 1165
f 1165 1201 1202
f 1165 1202 1166
f 1166 1202 1203
f 1166 1203 1167
f 1167 1203 1204
f 1167 1204 1168
f 1168 1204 1205
f 1168 1205 1169
f 1169 1205 1206
f 1169 1206 1170
f 1170 1206 1207
f 1170 1207 1171
f 1171 1207 1208
f 1171 1208 1172
f 1172 1208 1209
f 1172 1209 1173
f 1173 1209 1210
f 1173 1210 1174
f 1174 1210 1211
f 1174 1211 1175
f 1175 1211 1212
f 1175 1212 1176
f 1176 1212 1213
f 1176 1213 1177
f 1177 1213 1214
f 1177 1214 1178
f 1178 1214 1215
f 1178 1215 1179
f 1179 1215 1216
f 1179 1216 1180
f 1180 1216 1217
f 1180 1217 1181
f 1181 1217 1218
f 1181 1218 1182
f 1182 1218 1219
f 1182 1219 1183
f 1183 1219 1220
f 1183 1220 1184
f 1184 1220 1221
f 1184 1221 1185
f 1185 1221 1222
f 1185 1222 1186
f 1186 1222 1223
f 1186 1223 1187
f 1187 1223 1224
f 1187 1224 1188
f 1188 1224 1225
f 1188 1225 1189
f 1189 1225 1226
f 1189 1226 1190
f 1190 1226 1227
f 1190 1227 1191
f 1191 1227 1228
f 1191 1228 1192
f 1192 1228 1193
f 1192 1193 1157
f 1193 1229 1230
f 1193 1230 1194
f 1194 1230 1231
f 1194 1231 1195
f 1195 1231 1232
f 1195 1232 1196
f 1196 1232 1233
f 1196 1233 1197
f 1197 1233 1234
f 1197 1234 1198
f 1198 1234 1235
f 1198 1235 1199
f 1199 1235 1236
f 1199 1236 1200
f 1200 1236 1237
f 1200 1237 1201
f 1201 1237 1238
f 1201 1238 1202
f 1202 1238 1239
f 1202 1239 1203
f 1203 1239 1240
f 1203 1240 1204
f 1204 1240 1241
f 1204 1241 1205
f 1205 1241 1242
f 1205 1242 1206
f 1206 1242 1243
f 1206 1243 1207
f 1207 1243 1244
f 1207 1244 1208
f 1208 1244 1245
f 1208 1245 1209
f 1209 1245 1246
f 1209 1246 1210
f 1210 1246 1247
f 1210 1247 1211
f 1211 1247 1248
f 1211 1248 1212
f 1212 1248 1249
f 1212 1249 1213
f 1213 1249 1250
f 1213 1250 1214
f 1214 1250 1251
f 1214 1251 1215
f 1215 1251 1252
f 1215 1252 1216
f 1216 1252 1253
f 1216 1253 1217
f 1217 1253 1254
f 1217 1254 1218
f 1218 1254 1255
f 1218 1255 1219
f 1219 1255 1256
f 1219 1256 1220
f 1220 1256 1257
f 1220 1257 1221
f 1221 1257 1258
f 1221 1258 1222
f 1222 1258 1259
f 1222 1259 1223
f 1223 1259 1260
f 1223 1260 1224
f 1224 1260 1261
f 1224 1261 1225
f 1225 1261 1262
f 1225 1262 1226
f 1226 1262 1263
f 1226 1263 1227
f 1227 1263 1264
f 1227 1264 1228
f 1228 1264 1229
f 1228 1229 1193
f 1229 1265 1266
f 1229 1266 1230
f 1230 1266 1267
f 1230 1267 1231
f 1231 1267 1268
f 1231 1268 1232
f 1232 1268 1269
f 1232 1269 1233
f 1233 1269 1270
f 1233 1270 1234
f 1234 1270 1271
f 1234 1271 1235
f 1235 1271 1272
f 1235 1272 1236
f 1236 1272 1273
f 1236 1273 1237
f 1237 1273 1274
f 1237 1274 1238
f 1238 1274 1275
f 1238 1275 1239
f 1239 1275 1276
f 1239 1276 1240
f 1240 1276 1277
f 1240 1277 1241
f 1241 1277 1278
f 1241 1278 1242
f 1242 1278 1279
f 1242 1279 1243
f 1243 1279 1280
f 1243 1280 1244
f 1244 1280 1281
f 1244 1281 1245
f 1245 1281 1282
f 1245 1282 1246
f 1246 1282 1283
f 1246 1283 1247
f 1247 1283 1284
f 1247 1284 1248
f 1248 1284 1285
f 1248 1285 1249
f 1249 1285 1286
f 1249 1286 1250
f 1250 1286 1287
f 1250 1287 1251
f 1251 1287 1288
f 1251 1288 1252
f 1252 1288 1289
f 1252 1289 1253
f 1253 1289 1290
f 1253 1290 1254
f 1254 1290 1291
f 1254 1291 1255
f 1255 1291 1292
f 1255 1292 1256
f 1256 1292 1293
f 1256 1293 1257
f 1257 1293 1294
f 1257 1294 1258
f 1258 1294 1295
f 1258 1295 1259
f 1259 1295 1296
f 1259 1296 1260
f 1260 1296 1297
f 1260 1297 1261
f 1261 1297 1298
f 1261 1298 1262
f 1262 1298 1299
f 1262 1299 1263
f 1263 1299 1300
f 1263 1300 1264
f 1264 1300 1265
f 1264 1265 1229
f 1301 1157 1158
f 1301 1158 1159
f 1301 1159 1160
f 1301 1160 1161
f 1301 1161 1162
f 1301 1162 1163
f 1301 1163 1164
f 1301 1164 1165
f 1301 1165 1166
f 1301 1166 1167
f 1301 1167 1168
f 1301 1168 1169
f 1301 1169 1170
f 1301 1170 1171
f 1301 1171 1172
f 1301 1172 1173
f 1301 1173 1174
f 1301 1174 1175
f 1301 1175 1176
f 1301 1176 1177
f 1301 1177 1178
f 1301 1178 1179
f 1301 1179 1180
f 1301 1180 1181
f 1301 1181 1182
f 1301 1182 1183
f 1301 1183 1184
f 1301 1184 1185
f 1301 1185 1186
f 1301 1186 1187
f 1301 1187 1188
f 1301 1188 1189
f 1301 1189 1190
f 1301 1190 1191
f 1301 1191 1192
f 1301 1192 1157
f 1302 1266 1265
f 1302 1267 1266
f 1302 1268 1267
f 1302 1269 1268
f 1302 1270 1269
f 1302 1271 1270
f 1302 1272 1271
f 1302 1273 1272
f 1302 1274 1273
f 1302 1275 1274
f 1302 1276 1275
f 1302 1277 1276
f 1302 1278 1277
f 1302 1279 1278
f 1302 1280 1279
f 1302 1281 1280
f 1302 1282 1281
f 1302 1283 1282
f 1302 1284 1283
f 1302 1285 1284
f 1302 1286 1285
f 1302 1287 1286
f 1302 1288 1287
f 1302 1289 1288
f 1302 1290 1289
f 1302 1291 1290
f 1302 1292 1291
f 1302 1293 1292
f 1302 1294 1293
f 1302 1295 1294
f 1302 1296 1295
f 1302 1297 1296
f 1302 1298 1297
f 1302 1299 1298
f 1302 1300 1299
f 1302 1265 1300

